<?xml version="1.0" encoding="UTF-8"?>
<svg width="24px" height="23px" viewBox="0 0 24 23" version="1.1" xmlns="http://www.w3.org/2000/svg" xmlns:xlink="http://www.w3.org/1999/xlink">
    <!-- Generator: Sketch 47.1 (45422) - http://www.bohemiancoding.com/sketch -->
    <title>Page 1</title>
    <desc>Created with Sketch.</desc>
    <defs></defs>
    <g id="Page-1" stroke="none" stroke-width="1" fill="none" fill-rule="evenodd">
        <g fill="#FFFFFF">
            <path d="M0,21.6725818 C0,22.2907636 0.472727273,22.7634909 1.09090909,22.7634909 L22.9090909,22.7634909 C23.5272727,22.7634909 24,22.2907636 24,21.6725818 C24,21.0547636 23.5272727,20.5816727 22.9090909,20.5816727 L1.09090909,20.5816727 C0.472727273,20.5816727 0,21.0907636 0,21.6725818" id="Fill-1"></path>
            <path d="M11.7817818,0 C11.1636,0 10.6908727,0.472727273 10.6908727,1.09090909 L10.6908727,15.1636364 L3.59996364,9.05454545 C3.12723636,8.65454545 2.43632727,8.72727273 2.07269091,9.16363636 C1.67269091,9.63636364 1.74541818,10.3272727 2.18178182,10.6909091 L11.0908727,18.3272727 C11.3090545,18.5090909 11.5636,18.5818182 11.8181455,18.5818182 C12.0726909,18.5818182 12.3272364,18.5090909 12.5454182,18.3272727 L21.4545091,10.6909091 C21.9272364,10.2909091 21.9636,9.6 21.5636,9.16363636 C21.1636,8.69090909 20.4726909,8.65454545 20.0363273,9.05454545 L12.8726909,15.1636364 L12.8726909,1.09090909 C12.8726909,0.472727273 12.3999636,0 11.7817818,0" id="Fill-3"></path>
        </g>
    </g>
</svg>