<?xml version="1.0" encoding="UTF-8"?>
<svg width="23px" height="23px" viewBox="0 0 23 23" version="1.1" xmlns="http://www.w3.org/2000/svg" xmlns:xlink="http://www.w3.org/1999/xlink">
    <!-- Generator: Sketch 47.1 (45422) - http://www.bohemiancoding.com/sketch -->
    <title>icon-note</title>
    <desc>Created with Sketch.</desc>
    <defs>
        <polygon id="path-1" points="22.6304918 22.9999623 22.6304918 0 0 0 0 11.4999811 0 22.9999623"></polygon>
    </defs>
    <g id="Page-1" stroke="none" stroke-width="1" fill="none" fill-rule="evenodd">
        <g id="icon-note">
            <mask id="mask-2" fill="white">
                <use xlink:href="#path-1"></use>
            </mask>
            <g id="Clip-2"></g>
            <path d="M16.7786885,13.2343885 L17.9098361,11.9901262 L17.9098361,22.4343885 C17.9098361,22.7360279 17.6459016,22.9999623 17.3442623,22.9999623 L0.56557377,22.9999623 C0.263934426,22.9999623 0,22.7360279 0,22.4343885 L0,0.565536066 C0,0.263896721 0.263934426,-3.7704918e-05 0.56557377,-3.7704918e-05 L17.3442623,-3.7704918e-05 C17.6459016,-3.7704918e-05 17.9098361,0.263896721 17.9098361,0.565536066 L17.9098361,3.05406066 L16.7786885,4.29832295 L16.7786885,1.13110984 L1.13114754,1.13110984 L1.13114754,21.9065197 L16.7786885,21.9065197 L16.7786885,13.2343885 Z M10.4442623,17.3442246 L8.89836066,17.3819295 L8.7852459,15.8360279 L19.6065574,4.03438852 L21.2655738,5.58029016 L10.4442623,17.3442246 Z M22.4344262,5.09012623 L19.9081967,2.79012623 C19.795082,2.67701148 19.6442623,2.63930656 19.4934426,2.63930656 C19.342623,2.63930656 19.1918033,2.71471639 19.1163934,2.82783115 L7.76721311,15.2327492 C7.65409836,15.3458639 7.61639344,15.4966836 7.61639344,15.6475033 L7.80491803,17.9852082 C7.84262295,18.2868475 8.06885246,18.513077 8.3704918,18.513077 L10.7081967,18.4753721 C10.8590164,18.4753721 11.0098361,18.3999623 11.1229508,18.2868475 L22.5098361,5.88192951 C22.6983607,5.6557 22.6606557,5.31635574 22.4344262,5.09012623 L22.4344262,5.09012623 Z" id="Fill-1" fill="#FFFFFF" mask="url(#mask-2)"></path>
        </g>
    </g>
</svg>