<?xml version="1.0" encoding="UTF-8"?>
<svg width="22px" height="26px" viewBox="0 0 22 26" version="1.1" xmlns="http://www.w3.org/2000/svg" xmlns:xlink="http://www.w3.org/1999/xlink">
    <!-- Generator: Sketch 47.1 (45422) - http://www.bohemiancoding.com/sketch -->
    <title>icon-magazine</title>
    <desc>Created with Sketch.</desc>
    <defs>
        <polygon id="path-1" points="22 12.6075576 22 0 0 0 0 12.6075576 0 25.2151152 22 25.2151152"></polygon>
    </defs>
    <g id="Page-1" stroke="none" stroke-width="1" fill="none" fill-rule="evenodd">
        <g id="icon-magazine">
            <mask id="mask-2" fill="white">
                <use xlink:href="#path-1"></use>
            </mask>
            <g id="Clip-2"></g>
            <path d="M20.4285714,23.6393576 L13.9071429,23.6393576 C15.1642857,23.1666303 16.2642857,22.6151152 17.05,21.8272364 C17.2071429,21.6696606 17.2857143,21.5120848 17.2857143,21.2757212 L17.2857143,4.73026667 L20.4285714,4.73026667 L20.4285714,23.6393576 Z M1.57142857,23.6393576 L1.57142857,4.73026667 C4.08571429,4.73026667 11.7071429,4.65147879 15.7142857,2.3666303 L15.7142857,20.9613576 C13.3571429,23.0090545 7.22857143,23.5605697 3.22142857,23.6393576 L2.35714286,23.6393576 L1.57142857,23.6393576 Z M21.2142857,3.15450909 L17.2857143,3.15450909 L17.2857143,0.790872727 C17.2857143,0.475721212 17.1285714,0.160569697 16.8142857,0.0817818182 C16.5,-0.0757939394 16.1857143,0.00299393939 15.95,0.239357576 C13.2,2.99693333 4.08571429,3.23329697 0.785714286,3.15450909 C0.628571429,3.15450909 0.392857143,3.23329697 0.235714286,3.39087273 C0.0785714286,3.54844848 0,3.70602424 0,3.94238788 L0,24.4272364 C0,24.8211758 0.314285714,25.2151152 0.785714286,25.2151152 L3.22142857,25.2151152 L21.2142857,25.2151152 C21.6857143,25.2151152 22,24.9007515 22,24.4272364 L22,3.94238788 C22,3.46966061 21.6857143,3.15450909 21.2142857,3.15450909 L21.2142857,3.15450909 Z" id="Fill-1" fill="#FFFFFF" mask="url(#mask-2)"></path>
        </g>
    </g>
</svg>