<?xml version="1.0" encoding="UTF-8"?>
<svg width="133px" height="90px" viewBox="0 0 133 90" version="1.1" xmlns="http://www.w3.org/2000/svg" xmlns:xlink="http://www.w3.org/1999/xlink">
    <!-- Generator: Sketch 47.1 (45422) - http://www.bohemiancoding.com/sketch -->
    <title>service-icon-01</title>
    <desc>Created with Sketch.</desc>
    <defs>
        <polygon id="path-1" points="0.000187764706 89.1882353 74.6552471 89.1882353 74.6552471 0.162729412 0.000187764706 0.162729412"></polygon>
        <polygon id="path-3" points="0 89.3384471 74.6552471 89.3384471 74.6552471 0.312941176 0 0.312941176"></polygon>
    </defs>
    <g id="Page-1" stroke="none" stroke-width="1" fill="none" fill-rule="evenodd">
        <g id="service-icon-01">
            <rect id="Rectangle" x="0" y="0" width="133" height="90"></rect>
            <g id="Page-1">
                <g id="Group-3" transform="translate(0.000000, 0.150212)">
                    <mask id="mask-2" fill="white">
                        <use xlink:href="#path-1"></use>
                    </mask>
                    <g id="Clip-2"></g>
                    <path d="M55.9913101,86.3140896 L45.9321289,86.3140896 L45.9321289,74.8354073 C45.9321289,70.0865249 42.0591689,66.2135649 37.3099736,66.2135649 C32.5607784,66.2135649 28.6878184,70.0865249 28.6878184,74.8354073 L28.6878184,86.3140896 L18.6286372,86.3140896 L18.6286372,20.2637861 L55.9565736,20.2637861 L55.9565736,86.3140896 L55.9913101,86.3140896 Z M43.0759148,86.3140896 L31.5969195,86.3140896 L31.5969195,74.8354073 C31.5969195,71.6637485 34.1730513,69.0873038 37.345336,69.0873038 C40.5173078,69.0873038 43.0931266,71.6637485 43.0931266,74.8354073 L43.0931266,86.3140896 L43.0759148,86.3140896 Z M30.1423689,17.3894214 L44.5126278,17.3894214 L44.5126278,11.6413179 L30.1423689,11.6413179 L30.1423689,17.3894214 Z M58.8656748,86.3140896 L58.8656748,17.3894214 L47.3866795,17.3894214 L47.3866795,8.78479082 L38.7645242,8.78479082 L38.7645242,0.162635529 L35.8907854,0.162635529 L35.8907854,8.78479082 L27.2683172,8.78479082 L27.2683172,17.4069461 L15.7896348,17.4069461 L15.7896348,86.3319273 L0.000187764706,86.3319273 L0.000187764706,89.1884544 L74.6554348,89.1884544 L74.6554348,86.3140896 L58.8656748,86.3140896 Z" id="Fill-1" fill="#58A9FE" mask="url(#mask-2)"></path>
                </g>
                <mask id="mask-4" fill="white">
                    <use xlink:href="#path-3"></use>
                </mask>
                <g id="Clip-5"></g>
                <polygon id="Fill-4" fill="#58A9FE" mask="url(#mask-4)" points="22.9748894 29.0359341 25.8489412 29.0359341 25.8489412 26.1618824 22.9748894 26.1618824"></polygon>
                <polygon id="Fill-6" fill="#58A9FE" mask="url(#mask-4)" points="31.57952 29.0359341 34.4535718 29.0359341 34.4535718 26.1618824 31.57952 26.1618824"></polygon>
                <polygon id="Fill-7" fill="#58A9FE" mask="url(#mask-4)" points="40.2016753 29.0359341 43.07604 29.0359341 43.07604 26.1618824 40.2016753 26.1618824"></polygon>
                <polygon id="Fill-8" fill="#58A9FE" mask="url(#mask-4)" points="48.8063059 29.0359341 51.6806706 29.0359341 51.6806706 26.1618824 48.8063059 26.1618824"></polygon>
                <polygon id="Fill-9" fill="#58A9FE" mask="url(#mask-4)" points="22.9748894 36.2210635 25.8489412 36.2210635 25.8489412 33.3470118 22.9748894 33.3470118"></polygon>
                <polygon id="Fill-10" fill="#58A9FE" mask="url(#mask-4)" points="31.57952 36.2210635 34.4535718 36.2210635 34.4535718 33.3470118 31.57952 33.3470118"></polygon>
                <polygon id="Fill-11" fill="#58A9FE" mask="url(#mask-4)" points="40.2016753 36.2210635 43.07604 36.2210635 43.07604 33.3470118 40.2016753 33.3470118"></polygon>
                <polygon id="Fill-12" fill="#58A9FE" mask="url(#mask-4)" points="48.8063059 36.2210635 51.6806706 36.2210635 51.6806706 33.3470118 48.8063059 33.3470118"></polygon>
                <polygon id="Fill-13" fill="#58A9FE" mask="url(#mask-4)" points="22.9748894 43.3886682 25.8489412 43.3886682 25.8489412 40.5146165 22.9748894 40.5146165"></polygon>
                <polygon id="Fill-14" fill="#58A9FE" mask="url(#mask-4)" points="31.57952 43.3886682 34.4535718 43.3886682 34.4535718 40.5146165 31.57952 40.5146165"></polygon>
                <polygon id="Fill-15" fill="#58A9FE" mask="url(#mask-4)" points="40.2016753 43.3886682 43.07604 43.3886682 43.07604 40.5146165 40.2016753 40.5146165"></polygon>
                <polygon id="Fill-16" fill="#58A9FE" mask="url(#mask-4)" points="48.8063059 43.3886682 51.6806706 43.3886682 51.6806706 40.5146165 48.8063059 40.5146165"></polygon>
                <polygon id="Fill-17" fill="#58A9FE" mask="url(#mask-4)" points="22.9748894 50.5741106 25.8489412 50.5741106 25.8489412 47.6997459 22.9748894 47.6997459"></polygon>
                <polygon id="Fill-18" fill="#58A9FE" mask="url(#mask-4)" points="31.57952 50.5741106 34.4535718 50.5741106 34.4535718 47.6997459 31.57952 47.6997459"></polygon>
                <polygon id="Fill-19" fill="#58A9FE" mask="url(#mask-4)" points="40.2016753 50.5741106 43.07604 50.5741106 43.07604 47.6997459 40.2016753 47.6997459"></polygon>
                <polygon id="Fill-20" fill="#58A9FE" mask="url(#mask-4)" points="48.8063059 50.5741106 51.6806706 50.5741106 51.6806706 47.6997459 48.8063059 47.6997459"></polygon>
                <polygon id="Fill-21" fill="#58A9FE" mask="url(#mask-4)" points="22.9748894 57.75924 25.8489412 57.75924 25.8489412 54.8848753 22.9748894 54.8848753"></polygon>
                <polygon id="Fill-22" fill="#58A9FE" mask="url(#mask-4)" points="31.57952 57.75924 34.4535718 57.75924 34.4535718 54.8848753 31.57952 54.8848753"></polygon>
                <polygon id="Fill-23" fill="#58A9FE" mask="url(#mask-4)" points="40.2016753 57.75924 43.07604 57.75924 43.07604 54.8848753 40.2016753 54.8848753"></polygon>
                <polygon id="Fill-24" fill="#58A9FE" mask="url(#mask-4)" points="48.8063059 57.75924 51.6806706 57.75924 51.6806706 54.8848753 48.8063059 54.8848753"></polygon>
                <polygon id="Fill-25" fill="#58A9FE" mask="url(#mask-4)" points="22.9748894 64.9268447 25.8489412 64.9268447 25.8489412 62.05248 22.9748894 62.05248"></polygon>
                <polygon id="Fill-26" fill="#58A9FE" mask="url(#mask-4)" points="31.57952 64.9268447 34.4535718 64.9268447 34.4535718 62.05248 31.57952 62.05248"></polygon>
                <polygon id="Fill-27" fill="#58A9FE" mask="url(#mask-4)" points="40.2016753 64.9268447 43.07604 64.9268447 43.07604 62.05248 40.2016753 62.05248"></polygon>
                <polygon id="Fill-28" fill="#58A9FE" mask="url(#mask-4)" points="48.8063059 64.9268447 51.6806706 64.9268447 51.6806706 62.05248 48.8063059 62.05248"></polygon>
                <polygon id="Fill-29" fill="#58A9FE" mask="url(#mask-4)" points="22.9748894 72.1119741 25.8489412 72.1119741 25.8489412 69.2376094 22.9748894 69.2376094"></polygon>
                <polygon id="Fill-30" fill="#58A9FE" mask="url(#mask-4)" points="48.8063059 72.1119741 51.6806706 72.1119741 51.6806706 69.2376094 48.8063059 69.2376094"></polygon>
                <polygon id="Fill-31" fill="#58A9FE" mask="url(#mask-4)" points="22.9748894 79.2971035 25.8489412 79.2971035 25.8489412 76.4227388 22.9748894 76.4227388"></polygon>
                <polygon id="Fill-32" fill="#58A9FE" mask="url(#mask-4)" points="48.8063059 79.2971035 51.6806706 79.2971035 51.6806706 76.4227388 48.8063059 76.4227388"></polygon>
            </g>
            <path d="M130.515368,88.0682989 L131.692299,88.0682989 L131.692299,30.5294527 L130.515368,30.5294527 L130.515368,88.0682989 Z M124.499943,51.3218994 L129.207667,51.3218994 L129.207667,47.3987962 L124.499943,47.3987962 L124.499943,51.3218994 Z M124.499943,74.2066678 L129.207667,74.2066678 L129.207667,52.6298569 L124.499943,52.6298569 L124.499943,74.2066678 Z M124.499943,79.437472 L129.207667,79.437472 L129.207667,75.5143689 L124.499943,75.5143689 L124.499943,79.437472 Z M112.730377,81.3990236 L123.192242,81.3990236 L123.192242,80.7449166 L112.730377,80.7449166 L112.730377,81.3990236 Z M82.6535095,79.437472 L82.6535095,75.5143689 L85.5958369,75.5143689 L94.422819,75.5143689 L111.422933,75.5143689 L111.422933,79.437472 L82.6535095,79.437472 Z M95.0766695,71.4604956 L95.0766695,73.5528173 C95.0766695,73.9451276 94.8151293,74.2066678 94.422819,74.2066678 L85.5958369,74.2066678 C85.2035266,74.2066678 84.9419864,73.9451276 84.9419864,73.5528173 L84.9419864,71.4604956 C84.9419864,71.0681853 85.2035266,70.8066451 85.5958369,70.8066451 L94.422819,70.8066451 C94.8151293,70.8066451 95.0766695,71.1335703 95.0766695,71.4604956 L95.0766695,71.4604956 Z M82.6535095,52.6296005 L111.422933,52.6296005 L111.422933,74.2066678 L96.2536005,74.2066678 C96.3189855,74.0105126 96.3843706,73.8143575 96.3843706,73.5528173 L96.3843706,71.4604956 C96.3843706,70.3489497 95.5343649,69.498944 94.422819,69.498944 L85.5958369,69.498944 C84.484291,69.498944 83.6342853,70.3489497 83.6342853,71.4604956 L83.6342853,73.5528173 C83.6342853,73.8143575 83.6996704,74.0105126 83.7650554,74.2066678 L82.6535095,74.2066678 L82.6535095,52.6296005 Z M82.6535095,47.3987962 L85.5958369,47.3987962 L94.422819,47.3987962 L111.422933,47.3987962 L111.422933,51.3218994 L82.6535095,51.3218994 L82.6535095,47.3987962 Z M84.9419864,43.344923 C84.9419864,42.9526127 85.2035266,42.6910725 85.5958369,42.6910725 L94.422819,42.6910725 C94.8151293,42.6910725 95.0766695,42.9526127 95.0766695,43.344923 L95.0766695,45.4372447 C95.0766695,45.829555 94.8151293,46.0910952 94.422819,46.0910952 L85.5958369,46.0910952 C85.2035266,46.0910952 84.9419864,45.829555 84.9419864,45.4372447 L84.9419864,43.344923 Z M112.730634,51.3218994 L123.192499,51.3218994 L123.192499,50.6680489 L112.730634,50.6680489 L112.730634,51.3218994 Z M112.730634,53.9373015 L123.192499,53.9373015 L123.192499,52.6296005 L112.730634,52.6296005 L112.730634,53.9373015 Z M112.730634,58.5142552 L123.192499,58.5142552 L123.192499,55.2450026 L112.730634,55.2450026 L112.730634,58.5142552 Z M112.730634,63.0912089 L123.192499,63.0912089 L123.192499,59.8219562 L112.730634,59.8219562 L112.730634,63.0912089 Z M112.730377,72.2451162 L123.192242,72.2451162 L123.192242,68.9758636 L112.730377,68.9758636 L112.730377,72.2451162 Z M112.730634,67.6681625 L123.192499,67.6681625 L123.192499,64.3989099 L112.730634,64.3989099 L112.730634,67.6681625 Z M112.730634,74.2066678 L123.192499,74.2066678 L123.192499,73.5528173 L112.730634,73.5528173 L112.730634,74.2066678 Z M112.730634,76.8220699 L123.192499,76.8220699 L123.192499,75.5143689 L112.730634,75.5143689 L112.730634,76.8220699 Z M112.730377,79.437472 L123.192242,79.437472 L123.192242,78.129771 L112.730377,78.129771 L112.730377,79.437472 Z M112.730377,49.3603478 L123.192242,49.3603478 L123.192242,47.3987962 L112.730377,47.3987962 L112.730377,49.3603478 Z M80.1688775,88.0682989 L81.3458085,88.0682989 L81.3458085,30.5294527 L80.1688775,30.5294527 L80.1688775,88.0682989 Z M132.346149,29.2217516 L129.861517,29.2217516 C129.469207,29.2217516 129.207667,29.4832918 129.207667,29.8756022 L129.207667,46.0910952 L96.2536005,46.0910952 C96.3189855,45.89494 96.3843706,45.6987849 96.3843706,45.4372447 L96.3843706,43.344923 C96.3843706,42.2333771 95.5343649,41.3833714 94.422819,41.3833714 L85.5958369,41.3833714 C84.484291,41.3833714 83.6342853,42.2333771 83.6342853,43.344923 L83.6342853,45.4372447 C83.6342853,45.6987849 83.6996704,45.89494 83.7650554,46.0910952 L82.6535095,46.0910952 L82.6535095,29.8756022 C82.6535095,29.4832918 82.3919693,29.2217516 81.999659,29.2217516 L79.515027,29.2217516 C79.1227167,29.2217516 78.8611765,29.4832918 78.8611765,29.8756022 L78.8611765,88.7221495 C78.8611765,89.1144598 79.1227167,89.376 79.515027,89.376 L81.999659,89.376 C82.3919693,89.376 82.6535095,89.1144598 82.6535095,88.7221495 L82.6535095,80.7451731 L111.422933,80.7451731 L111.422933,88.7221495 C111.422933,89.1144598 111.684473,89.376 112.076783,89.376 C112.469093,89.376 112.730634,89.1144598 112.730634,88.7221495 L112.730634,82.7067246 L123.192242,82.7067246 L123.192242,88.7221495 C123.192242,89.1144598 123.453782,89.376 123.846093,89.376 C124.238403,89.376 124.499943,89.1144598 124.499943,88.7221495 L124.499943,80.7451731 L129.207667,80.7451731 L129.207667,88.7221495 C129.207667,89.1144598 129.469207,89.376 129.861517,89.376 L132.346149,89.376 C132.73846,89.376 133,89.1144598 133,88.7221495 L133,29.8756022 C133,29.5486769 132.73846,29.2217516 132.346149,29.2217516 L132.346149,29.2217516 Z" id="Page-1" fill="#58A9FE"></path>
        </g>
    </g>
</svg>