<?xml version="1.0" encoding="UTF-8"?>
<svg width="75px" height="76px" viewBox="0 0 75 76" version="1.1" xmlns="http://www.w3.org/2000/svg" xmlns:xlink="http://www.w3.org/1999/xlink">
    <!-- Generator: Sketch 47.1 (45422) - http://www.bohemiancoding.com/sketch -->
    <title>service-icon-02</title>
    <desc>Created with Sketch.</desc>
    <defs></defs>
    <g id="Page-1" stroke="none" stroke-width="1" fill="none" fill-rule="evenodd">
        <g id="service-icon-02" transform="translate(-29.000000, -14.000000)">
            <rect id="Rectangle-Copy" x="0" y="0" width="133" height="90"></rect>
            <path d="M94.9478389,87.0650053 L76.8441969,87.0650053 L76.8441969,59.7614094 C76.8441969,57.6614282 75.1414328,55.9541733 73.0462635,55.9541733 L59.9522537,55.9541733 C57.8574037,55.9541733 56.1543203,57.6614282 56.1543203,59.7614094 L56.1543203,87.0650053 L38.0506782,87.0650053 L38.0506782,44.0193924 L66.4992586,17.5374168 L84.9649735,34.7264716 L92.3616044,41.6108634 L94.9478389,44.0181121 L94.9478389,87.0650053 Z M58.7405549,87.0650053 L58.7405549,59.7614094 C58.7405549,59.0915023 59.2836641,58.5467426 59.9522537,58.5467426 L73.0462635,58.5467426 C73.7148531,58.5467426 74.2579623,59.0915023 74.2579623,59.7614094 L74.2579623,87.0650053 L58.7405549,87.0650053 Z M82.0166661,23.5470566 L89.7753698,23.5470566 L89.7753698,35.666198 L82.0166661,28.4444521 L82.0166661,23.5470566 Z M103.587459,48.5227813 L92.3616044,38.0734466 L92.3616044,20.9544872 L79.4304315,20.9544872 L79.4304315,26.0372034 L66.4992586,14 L29.4126548,48.5227813 C28.8902992,49.0099283 28.8593283,49.8305885 29.3456042,50.3555038 C29.8302838,50.8791388 30.6489387,50.9092254 31.1738486,50.4230386 L35.4657208,46.4279213 L35.4657208,89.6578947 L56.1555974,89.6578947 L76.8457933,89.6578947 L97.5353507,89.6578947 L97.5353507,46.426641 L101.827223,50.4217583 C102.075629,50.6538093 102.392363,50.7677543 102.708139,50.7677543 C103.055844,50.7677543 103.400995,50.6291639 103.654509,50.3542235 C104.140785,49.8305885 104.109495,49.0099283 103.587459,48.5227813 L103.587459,48.5227813 Z" id="Fill-1" fill="#58A9FE"></path>
        </g>
    </g>
</svg>