<?xml version="1.0" encoding="UTF-8"?>
<svg width="89px" height="76px" viewBox="0 0 89 76" version="1.1" xmlns="http://www.w3.org/2000/svg" xmlns:xlink="http://www.w3.org/1999/xlink">
    <!-- Generator: Sketch 47.1 (45422) - http://www.bohemiancoding.com/sketch -->
    <title>service-icon-03</title>
    <desc>Created with Sketch.</desc>
    <defs></defs>
    <g id="Page-1" stroke="none" stroke-width="1" fill="none" fill-rule="evenodd">
        <g id="service-icon-03" transform="translate(-22.000000, -14.000000)">
            <rect id="Rectangle-Copy-2" x="0" y="0" width="133" height="90"></rect>
            <path d="M84.4679245,89.5660377 L110.664151,89.5660377 L110.664151,64.3773585 L84.4679245,64.3773585 L84.4679245,89.5660377 Z M86.4830189,87.5509434 L108.649057,87.5509434 L108.649057,66.3924528 L86.4830189,66.3924528 L86.4830189,87.5509434 Z" id="Fill-1" fill="#58A9FE"></path>
            <polygon id="Fill-2" fill="#58A9FE" points="84.8423962 70.1797107 110.331101 70.1797107 110.331101 68.1646164 84.8423962 68.1646164"></polygon>
            <path d="M53.2339623,89.5660377 L79.4301887,89.5660377 L79.4301887,64.3773585 L53.2339623,64.3773585 L53.2339623,89.5660377 Z M55.2490566,87.5509434 L77.4150943,87.5509434 L77.4150943,66.3924528 L55.2490566,66.3924528 L55.2490566,87.5509434 Z" id="Fill-3" fill="#58A9FE"></path>
            <polygon id="Fill-4" fill="#58A9FE" points="53.608434 70.1797107 79.0976981 70.1797107 79.0976981 68.1646164 53.608434 68.1646164"></polygon>
            <path d="M22,89.5660377 L48.1962264,89.5660377 L48.1962264,64.3773585 L22,64.3773585 L22,89.5660377 Z M24.0150943,87.5509434 L46.1811321,87.5509434 L46.1811321,66.3924528 L24.0150943,66.3924528 L24.0150943,87.5509434 Z" id="Fill-5" fill="#58A9FE"></path>
            <polygon id="Fill-6" fill="#58A9FE" points="22.3750314 70.1797107 47.8637358 70.1797107 47.8637358 68.1646164 22.3750314 68.1646164"></polygon>
            <path d="M53.2339623,39.1886792 L79.4301887,39.1886792 L79.4301887,14 L53.2339623,14 L53.2339623,39.1886792 Z M55.2490566,37.1735849 L77.4150943,37.1735849 L77.4150943,16.0150943 L55.2490566,16.0150943 L55.2490566,37.1735849 Z" id="Fill-7" fill="#58A9FE"></path>
            <polygon id="Fill-8" fill="#58A9FE" points="53.608434 19.8023522 79.0976981 19.8023522 79.0976981 17.7872579 53.608434 17.7872579"></polygon>
            <polygon id="Fill-9" fill="#58A9FE" points="65.3245283 65.3843459 67.3396226 65.3843459 67.3396226 52.2867925 65.3245283 52.2867925"></polygon>
            <polygon id="Fill-10" fill="#58A9FE" points="65.3245283 51.2792453 67.3396226 51.2792453 67.3396226 38.1811321 65.3245283 38.1811321"></polygon>
            <polygon id="Fill-11" fill="#58A9FE" points="34.090566 65.3843459 36.1056604 65.3843459 36.1056604 52.2867925 34.090566 52.2867925"></polygon>
            <polygon id="Fill-12" fill="#58A9FE" points="96.5584906 65.3843459 98.5735849 65.3843459 98.5735849 52.2867925 96.5584906 52.2867925"></polygon>
            <polygon id="Fill-13" fill="#58A9FE" points="34.090566 53.2943396 98.5735849 53.2943396 98.5735849 51.2792453 34.090566 51.2792453"></polygon>
        </g>
    </g>
</svg>