<?xml version="1.0" encoding="UTF-8"?>
<svg width="81px" height="64px" viewBox="0 0 81 64" version="1.1" xmlns="http://www.w3.org/2000/svg" xmlns:xlink="http://www.w3.org/1999/xlink">
    <!-- Generator: Sketch 47.1 (45422) - http://www.bohemiancoding.com/sketch -->
    <title>welfare-07</title>
    <desc>Created with Sketch.</desc>
    <defs></defs>
    <g id="Page-1" stroke="none" stroke-width="1" fill="none" fill-rule="evenodd">
        <g id="welfare-07" transform="translate(0.000000, -16.000000)">
            <rect id="Rectangle-2-Copy-8" x="0" y="0" width="98" height="80"></rect>
            <path d="M79.2765957,71.0575957 L49.4617021,71.0575957 C46.0235106,71.0575957 42.9765319,72.5052553 41.2186596,74.6836383 L41.5047447,72.069234 C41.5736809,71.6711277 41.697766,71.2833617 41.8838936,70.8766383 C41.8873404,70.8680213 41.8890638,70.8611277 41.8925106,70.8525106 L41.8994043,70.8387234 C43.0506383,68.1536596 46.0476383,66.1734681 49.4427447,65.7960426 L69.7978723,65.7960426 L70.6595745,65.7960426 L70.6595745,64.9343404 L70.6595745,24.7083617 L79.2765957,24.7083617 L79.2765957,71.0575957 Z M40.5,75.7435319 C40.4741489,75.697 40.4482979,75.6521915 40.4207234,75.6056596 C40.482766,75.6004894 40.5430851,75.5884255 40.5999574,75.5694681 C40.5672128,75.6263404 40.5327447,75.6866596 40.5,75.7435319 L40.5,75.7435319 Z M31.5382979,71.0575957 L1.72340426,71.0575957 L1.72340426,24.7083617 L10.3404255,24.7083617 L10.3404255,64.9343404 L10.3404255,65.7960426 L11.2021277,65.7960426 L11.2021277,65.7960426 L31.4624681,65.7908723 C31.8984894,65.8408511 32.327617,65.913234 32.7464043,66.0080213 C35.6710213,66.6801489 38.0889574,68.488 39.0988723,70.8335532 C39.1936596,71.161 39.3091277,72.6879362 39.3711702,73.5134468 C39.3918511,73.7943617 39.4125319,74.0563191 39.4314894,74.2769149 C37.6357021,72.3260213 34.7593404,71.0575957 31.5382979,71.0575957 L31.5382979,71.0575957 Z M12.0638298,17.7234043 L36.0019149,17.7234043 C38.0079574,17.7234043 39.6382979,18.9918298 39.6382979,20.5515106 L39.6382979,68.389766 C39.5607447,68.2880851 39.4711277,68.1898511 39.3884043,68.0881702 C39.2574255,67.929617 39.1367872,67.7641702 38.9937447,67.6107872 C38.8438085,67.4505106 38.6731915,67.3057447 38.5111915,67.1540851 C38.3509149,67.0058723 38.2009787,66.850766 38.0303617,66.7094468 C37.8597447,66.5698511 37.6701702,66.445766 37.4892128,66.3165106 C37.3048085,66.1838085 37.1307447,66.0424894 36.936,65.9201277 C36.7412553,65.7943191 36.5292766,65.6926383 36.3241915,65.5788936 C36.1242766,65.4685957 35.9347021,65.3479574 35.7261702,65.2497234 C35.5055745,65.1428723 35.2677447,65.0601489 35.0368085,64.9653617 C34.83,64.8809149 34.6300851,64.7844043 34.416383,64.7102979 C34.1492553,64.6206809 33.8700638,64.5534681 33.5943191,64.4776383 C33.4012979,64.4242128 33.2168936,64.3587234 33.0204255,64.3156383 C32.5430426,64.2087872 32.0535957,64.1277872 31.5555319,64.0726383 L12.0638298,64.0726383 L12.0638298,23.8466596 L12.0638298,17.7234043 Z M44.9963617,17.7234043 L68.9361702,17.7234043 L68.9361702,23.8466596 L68.9361702,64.0726383 L49.3514043,64.0778085 C48.8636809,64.131234 48.3828511,64.212234 47.9140851,64.3208085 C47.7279574,64.3621702 47.5521702,64.4242128 47.3694894,64.4759149 C47.0902979,64.5517447 46.809383,64.6206809 46.5405319,64.7137447 C46.3216596,64.7912979 46.1165745,64.8895319 45.9063191,64.9774255 C45.6857234,65.0670426 45.4599574,65.1480426 45.2479787,65.2514468 C45.0084255,65.3669149 44.7861064,65.5030638 44.558617,65.6340426 C44.3914468,65.7288298 44.2139362,65.815 44.0536596,65.9184043 C43.8054894,66.075234 43.578,66.2527447 43.3470638,66.4268085 C43.2229787,66.5198723 43.0902766,66.6043191 42.9713617,66.7025532 C42.7352553,66.8972979 42.5215532,67.1092766 42.3078511,67.3212553 C42.2113404,67.4160426 42.1062128,67.5022128 42.0148723,67.597 C41.8115106,67.8141489 41.634,68.0450851 41.454766,68.2777447 C41.4254681,68.3139362 41.391,68.3518511 41.3617021,68.389766 L41.3617021,20.5515106 C41.3617021,18.9918298 42.9920426,17.7234043 44.9963617,17.7234043 L44.9963617,17.7234043 Z M80.1382979,22.9849574 L70.6595745,22.9849574 L70.6595745,16 L44.9963617,16 C43.1161277,16 41.4564894,16.8289574 40.5,18.0784255 C39.5435106,16.8289574 37.8838723,16 36.0019149,16 L10.3404255,16 L10.3404255,22.9849574 L0.861702128,22.9849574 C0.386042553,22.9849574 0,23.371 0,23.8466596 L0,71.9192979 C0,72.3949574 0.386042553,72.781 0.861702128,72.781 L31.5382979,72.781 C35.9605532,72.781 39.5934894,75.5332766 39.6382979,78.9163191 C39.6434681,79.3868085 40.0295106,79.7659574 40.5,79.7659574 C40.9704894,79.7659574 41.3548085,79.3868085 41.3617021,78.9163191 C41.4065106,75.5332766 45.0411702,72.781 49.4617021,72.781 L80.1382979,72.781 C80.6139574,72.781 81,72.3949574 81,71.9192979 L81,23.8466596 C81,23.371 80.6139574,22.9849574 80.1382979,22.9849574 L80.1382979,22.9849574 Z" id="Page-1" fill="#444444"></path>
        </g>
    </g>
</svg>