<?xml version="1.0" encoding="UTF-8"?>
<svg width="63px" height="79px" viewBox="0 0 63 79" version="1.1" xmlns="http://www.w3.org/2000/svg" xmlns:xlink="http://www.w3.org/1999/xlink">
    <!-- Generator: Sketch 47.1 (45422) - http://www.bohemiancoding.com/sketch -->
    <title>welfare-12</title>
    <desc>Created with Sketch.</desc>
    <defs>
        <polygon id="path-1" points="62.3466667 33.8888889 62.3466667 0.555555556 0.000355555556 0.555555556 0.000355555556 33.8888889"></polygon>
    </defs>
    <g id="Page-1" stroke="none" stroke-width="1" fill="none" fill-rule="evenodd">
        <g id="welfare-12">
            <rect id="Rectangle-2-Copy-11" x="0" y="0" width="98" height="80"></rect>
            <g id="Page-1">
                <path d="M35.2622222,20.7461333 C34.9653333,21.1336889 35.0364444,21.6883556 35.4222222,21.9888 C35.5857778,22.1150222 35.7777778,22.1754667 35.9662222,22.1754667 C36.2328889,22.1754667 36.4942222,22.0581333 36.6702222,21.8323556 C36.8017778,21.6634667 39.8648889,17.5976889 36.688,10.9896889 C34.0408889,5.48213333 37.8062222,1.68302222 37.9662222,1.52302222 C38.3164444,1.18168889 38.3235556,0.618133333 37.9804444,0.267911111 C37.6373333,-0.0823111111 37.0791111,-0.0894222222 36.7253333,0.250133333 C36.6773333,0.298133333 31.872,5.07502222 35.0844444,11.7612444 C37.7582222,17.3221333 35.3706667,20.6021333 35.2622222,20.7461333" id="Fill-1" fill="#000000"></path>
                <path d="M30.2186667,33.4666667 C30.384,33.6 30.5813333,33.6657778 30.7768889,33.6657778 C31.0364444,33.6657778 31.2924444,33.552 31.4684444,33.3368889 C31.7777778,32.9546667 31.7191111,32.3946667 31.3386667,32.0871111 C31.0968889,31.8897778 25.4506667,27.2088889 29.4791111,21.5111111 C34.4,14.5528889 29.4471111,9.21777778 29.3973333,9.16444444 C29.0595556,8.81066667 28.4995556,8.79644444 28.144,9.13244444 C27.7884444,9.46844444 27.7724444,10.0302222 28.1084444,10.3893333 C28.272,10.5635556 32.0853333,14.7448889 28.0284444,20.4853333 C24.0444444,26.1191111 27.7191111,31.44 30.2186667,33.4666667" id="Fill-3" fill="#000000"></path>
                <g id="Group-7" transform="translate(0.000000, 37.567289)">
                    <mask id="mask-2" fill="white">
                        <use xlink:href="#path-1"></use>
                    </mask>
                    <g id="Clip-6"></g>
                    <path d="M22.9443556,32.1111111 C9.27324444,21.5617778 9.7088,10.3884444 9.87235556,6.16622222 C9.88835556,5.76444444 9.90257778,5.42311111 9.90257778,5.14755556 C9.90257778,2.80266667 11.5452444,2.33333333 14.1994667,2.33333333 L47.5772444,2.33333333 C50.2314667,2.33333333 51.8741333,2.80266667 51.8741333,5.14755556 C51.8741333,5.42311111 51.8883556,5.76444444 51.9043556,6.16622222 C52.0696889,10.3866667 52.5034667,21.5617778 38.8323556,32.1111111 L22.9443556,32.1111111 Z M60.5692444,12.7208889 C60.5692444,19.3075556 54.8945778,20.9164444 50.6154667,21.1937778 C54.0092444,14.5982222 53.7905778,8.90044444 53.6803556,6.09688889 C53.6661333,5.768 53.6572444,5.50133333 53.6554667,5.26133333 L55.5701333,5.26133333 C57.4368,5.26133333 60.5692444,6.23022222 60.5692444,12.7208889 L60.5692444,12.7208889 Z M60.8892444,32.1111111 L41.6270222,32.1111111 C45.2394667,29.0515556 47.8012444,25.9653333 49.5879111,23.016 C53.8030222,22.9271111 62.3470222,21.6488889 62.3470222,12.7208889 C62.3470222,4.15022222 57.1594667,3.48355556 55.5701333,3.48355556 L53.3976889,3.48355556 C52.4252444,0.562666667 48.8696889,0.555555556 47.5772444,0.555555556 L14.1994667,0.555555556 C12.6954667,0.555555556 8.1248,0.555555556 8.1248,5.14755556 C8.1248,5.40533333 8.11057778,5.72355556 8.09635556,6.09688889 C7.92924444,10.3813333 7.52924444,21.4248889 20.1496889,32.1111111 L0.889244444,32.1111111 C0.3968,32.1111111 0.000355555556,32.5093333 0.000355555556,33 C0.000355555556,33.4906667 0.3968,33.8888889 0.889244444,33.8888889 L22.6439111,33.8888889 L39.1328,33.8888889 L60.8892444,33.8888889 C61.3799111,33.8888889 61.7781333,33.4906667 61.7781333,33 C61.7781333,32.5093333 61.3799111,32.1111111 60.8892444,32.1111111 L60.8892444,32.1111111 Z" id="Fill-5" fill="#000000" mask="url(#mask-2)"></path>
                </g>
                <path d="M42.6666667,76.6784 L19.1111111,76.6784 C18.6204444,76.6784 18.2222222,77.0766222 18.2222222,77.5672889 C18.2222222,78.0579556 18.6204444,78.4561778 19.1111111,78.4561778 L42.6666667,78.4561778 C43.1573333,78.4561778 43.5555556,78.0579556 43.5555556,77.5672889 C43.5555556,77.0766222 43.1573333,76.6784 42.6666667,76.6784" id="Fill-8" fill="#000000"></path>
            </g>
        </g>
    </g>
</svg>