<?xml version="1.0" encoding="UTF-8"?>
<svg width="73px" height="64px" viewBox="0 0 73 64" version="1.1" xmlns="http://www.w3.org/2000/svg" xmlns:xlink="http://www.w3.org/1999/xlink">
    <!-- Generator: Sketch 47.1 (45422) - http://www.bohemiancoding.com/sketch -->
    <title>welfare-06</title>
    <desc>Created with Sketch.</desc>
    <defs></defs>
    <g id="Page-1" stroke="none" stroke-width="1" fill="none" fill-rule="evenodd">
        <g id="welfare-06" transform="translate(0.000000, -16.000000)">
            <rect id="Rectangle-2-Copy-6" x="0" y="0" width="98" height="80"></rect>
            <g id="Page-1" transform="translate(0.000000, 16.000000)" fill="#444444">
                <path d="M61.59375,57.6015625 L61.59375,39.3515625 C61.59375,37.4643984 60.0590391,35.9296875 58.171875,35.9296875 L44.484375,35.9296875 C42.5972109,35.9296875 41.0625,37.4643984 41.0625,39.3515625 L41.0625,57.6015625 L18.25,57.6015625 L18.25,28.515625 C18.25,27.8865703 18.7615703,27.375 19.390625,27.375 L63.875,27.375 C64.5040547,27.375 65.015625,27.8865703 65.015625,28.515625 L65.015625,57.6015625 L61.59375,57.6015625 Z M70.71875,60.9059531 C70.089125,61.1871172 68.9011641,61.59375 67.296875,61.59375 L61.3941406,61.59375 C61.52075,61.2361641 61.59375,60.8534844 61.59375,60.453125 L61.59375,59.8828125 L70.71875,59.8828125 L70.71875,60.9059531 Z M44.484375,61.59375 C43.8553203,61.59375 43.34375,61.0821797 43.34375,60.453125 L43.34375,39.3515625 C43.34375,38.7225078 43.8553203,38.2109375 44.484375,38.2109375 L58.171875,38.2109375 C58.8009297,38.2109375 59.3125,38.7225078 59.3125,39.3515625 L59.3125,60.453125 C59.3125,61.0821797 58.8009297,61.59375 58.171875,61.59375 L44.484375,61.59375 Z M12.546875,60.9048125 L12.546875,59.8828125 L41.0625,59.8828125 L41.0625,60.453125 C41.0625,60.8534844 41.1355,61.2361641 41.2621094,61.59375 L15.96875,61.59375 C14.3695937,61.59375 13.1776406,61.1854062 12.546875,60.9048125 L12.546875,60.9048125 Z M3.421875,52.46875 C2.79282031,52.46875 2.28125,51.9571797 2.28125,51.328125 L2.28125,45.625 L15.96875,45.625 L15.96875,52.46875 L3.421875,52.46875 Z M3.421875,2.28125 L69.578125,2.28125 C70.2071797,2.28125 70.71875,2.79282031 70.71875,3.421875 L70.71875,43.34375 L67.296875,43.34375 L67.296875,28.515625 C67.296875,26.6284609 65.7621641,25.09375 63.875,25.09375 L19.390625,25.09375 C17.5034609,25.09375 15.96875,26.6284609 15.96875,28.515625 L15.96875,43.34375 L2.28125,43.34375 L2.28125,3.421875 C2.28125,2.79282031 2.79282031,2.28125 3.421875,2.28125 L3.421875,2.28125 Z M69.578125,52.46875 L67.296875,52.46875 L67.296875,45.625 L70.71875,45.625 L70.71875,51.328125 C70.71875,51.9571797 70.2071797,52.46875 69.578125,52.46875 L69.578125,52.46875 Z M69.578125,54.75 C71.4652891,54.75 73,53.2152891 73,51.328125 L73,3.421875 C73,1.53471094 71.4652891,0 69.578125,0 L3.421875,0 C1.53471094,0 0,1.53471094 0,3.421875 L0,51.328125 C0,53.2152891 1.53471094,54.75 3.421875,54.75 L15.96875,54.75 L15.96875,57.6015625 L10.265625,57.6015625 L10.265625,62.2039844 L10.7737734,62.54275 C10.8553281,62.5975 12.8080781,63.875 15.96875,63.875 L44.484375,63.875 L58.171875,63.875 L67.296875,63.875 C70.4575469,63.875 72.4108672,62.5975 72.4918516,62.54275 L73,62.2039844 L73,57.6015625 L67.296875,57.6015625 L67.296875,54.75 L69.578125,54.75 Z" id="Fill-1"></path>
                <path d="M51.328125,57.6015625 C50.6985,57.6015625 50.1875,58.1125625 50.1875,58.7421875 C50.1875,59.3718125 50.6985,59.8828125 51.328125,59.8828125 C51.95775,59.8828125 52.46875,59.3718125 52.46875,58.7421875 C52.46875,58.1125625 51.95775,57.6015625 51.328125,57.6015625" id="Fill-3"></path>
                <path d="M36.5,6.84375 C37.129625,6.84375 37.640625,6.33332031 37.640625,5.703125 C37.640625,5.0735 37.129625,4.5625 36.5,4.5625 C35.870375,4.5625 35.359375,5.0735 35.359375,5.703125 C35.359375,6.33332031 35.870375,6.84375 36.5,6.84375" id="Fill-5"></path>
                <path d="M41.6328125,29.65625 C41.0031875,29.65625 40.4921875,30.16725 40.4921875,30.796875 C40.4921875,31.4270703 41.0031875,31.9375 41.6328125,31.9375 C42.2624375,31.9375 42.7734375,31.4270703 42.7734375,30.796875 C42.7734375,30.16725 42.2624375,29.65625 41.6328125,29.65625" id="Fill-7"></path>
            </g>
        </g>
    </g>
</svg>