<?xml version="1.0" encoding="UTF-8"?>
<svg width="76px" height="76px" viewBox="0 0 76 76" version="1.1" xmlns="http://www.w3.org/2000/svg" xmlns:xlink="http://www.w3.org/1999/xlink">
    <!-- Generator: Sketch 47.1 (45422) - http://www.bohemiancoding.com/sketch -->
    <title>welfare-11</title>
    <desc>Created with Sketch.</desc>
    <defs></defs>
    <g id="Page-1" stroke="none" stroke-width="1" fill="none" fill-rule="evenodd">
        <g id="welfare-11" transform="translate(0.000000, -4.000000)">
            <rect id="Rectangle-2-Copy-12" x="0" y="0" width="98" height="80"></rect>
            <g id="Page-1" transform="translate(0.000000, 4.000000)" fill="#444444">
                <path d="M74.7118644,43.7958373 L70.8474576,43.7958373 L70.8474576,35.4229559 L69.559322,35.4229559 L69.559322,60.5416 L64.4067797,60.5416 L64.4067797,45.7280407 L63.1186441,45.7280407 L63.1186441,60.5416 L57.9661017,60.5416 L57.9661017,35.4229559 L56.6779661,35.4229559 L56.6779661,43.7958373 L52.8135593,43.7958373 L52.8135593,35.4229559 C52.8135593,32.9374983 54.8365763,30.9144814 57.3220339,30.9144814 L61.1864407,30.9144814 L66.3389831,30.9144814 L70.2033898,30.9144814 C72.6888475,30.9144814 74.7118644,32.9374983 74.7118644,35.4229559 L74.7118644,43.7958373 Z M68.2711864,27.6941424 C68.2711864,28.7594305 67.4042712,29.6263458 66.3389831,29.6263458 L61.1864407,29.6263458 C60.1211525,29.6263458 59.2542373,28.7594305 59.2542373,27.6941424 C59.2542373,27.0371932 59.5846441,26.4581763 60.0870169,26.1090915 C60.1263051,26.0820407 60.1675254,26.0614305 60.2081017,26.0376 C60.2654237,26.0034644 60.3233898,25.9699729 60.3845763,25.9416339 C60.4270847,25.9216678 60.4708814,25.9055661 60.515322,25.8894644 C60.5835932,25.8637017 60.6531525,25.8418034 60.7246441,25.8244136 C60.7632881,25.8147525 60.8019322,25.8044475 60.8412203,25.7973627 C60.9532881,25.7761085 61.0679322,25.761939 61.1864407,25.761939 L66.3389831,25.761939 C66.4574915,25.761939 66.5721356,25.7761085 66.6848475,25.7967186 C66.7241356,25.8038034 66.7627797,25.8141085 66.8014237,25.8237695 C66.8729153,25.8418034 66.9424746,25.8637017 67.0107458,25.8888203 C67.0545424,25.9055661 67.098339,25.9216678 67.1414915,25.9409898 C67.202678,25.9693288 67.2606441,26.0028203 67.3179661,26.0369559 C67.3585424,26.0607864 67.3997627,26.0813966 67.4390508,26.1084475 C67.9407797,26.4581763 68.2711864,27.0371932 68.2711864,27.6941424 L68.2711864,27.6941424 Z M54.1016949,16.100922 C54.1016949,10.7738373 58.4356271,6.43990508 63.7627119,6.43990508 C69.0897966,6.43990508 73.4237288,10.7738373 73.4237288,16.100922 C73.4237288,19.8674305 71.2480678,23.2681085 67.8531864,24.8544475 C67.7939322,24.8228881 67.7321017,24.7984136 67.6709153,24.7707186 C67.6290508,24.7513966 67.5891186,24.7307864 67.5466102,24.7133966 C67.3810847,24.6457695 67.2110508,24.5936 67.0365085,24.5549559 C66.9965763,24.545939 66.9566441,24.5394983 66.9160678,24.5324136 C66.7267119,24.4976339 66.5341356,24.4738034 66.3389831,24.4738034 L64.4067797,24.4738034 L64.4067797,17.6557017 L68.0824746,13.9800068 L67.1717627,13.0692949 L63.7627119,16.4783458 L60.353661,13.0692949 L59.4429492,13.9800068 L63.1186441,17.6557017 L63.1186441,24.4738034 L61.1864407,24.4738034 C60.9912881,24.4738034 60.7987119,24.4976339 60.6093559,24.5324136 C60.5687797,24.5394983 60.5288475,24.545939 60.4889153,24.5549559 C60.3150169,24.5936 60.144339,24.6464136 59.9788136,24.7133966 C59.9363051,24.7307864 59.8963729,24.7513966 59.8545085,24.7707186 C59.7939661,24.7984136 59.7314915,24.8228881 59.6722373,24.8544475 C56.2773559,23.2681085 54.1016949,19.8674305 54.1016949,16.100922 L54.1016949,16.100922 Z M41.220339,15.4568542 L41.220339,13.5246508 C41.220339,12.4593627 42.0872542,11.5924475 43.1525424,11.5924475 C44.2178305,11.5924475 45.0847458,12.4593627 45.0847458,13.5246508 C45.0847458,14.589939 44.2178305,15.4568542 43.1525424,15.4568542 L41.220339,15.4568542 Z M45.6251186,28.7839051 C43.8674576,29.8414644 42.7474237,31.5637017 42.5426102,33.4907525 L41.220339,33.4907525 L41.220339,16.7449898 L43.1525424,16.7449898 C44.9282373,16.7449898 46.3728814,15.3003458 46.3728814,13.5246508 C46.3728814,11.7489559 44.9282373,10.3043119 43.1525424,10.3043119 C41.3768475,10.3043119 39.9322034,11.7489559 39.9322034,13.5246508 L39.9322034,15.4568542 L36.0677966,15.4568542 L36.0677966,13.5246508 C36.0677966,11.7489559 34.6231525,10.3043119 32.8474576,10.3043119 C31.0717627,10.3043119 29.6271186,11.7489559 29.6271186,13.5246508 C29.6271186,15.3003458 31.0717627,16.7449898 32.8474576,16.7449898 L34.779661,16.7449898 L34.779661,33.4907525 L33.4580339,33.4907525 C33.2551525,31.5720746 32.1306102,29.8427525 30.3652203,28.7800407 C25.6506441,25.9403458 22.9088475,20.7633288 23.2089831,15.2694305 C23.6205424,7.73770169 29.8499661,1.60102373 37.3913559,1.2996 C41.4715254,1.13665085 45.3288475,2.59997288 48.2625763,5.41841356 C51.1969492,8.23749831 52.8135593,12.0317017 52.8135593,16.100922 C52.8135593,21.3365492 50.1265085,26.0781763 45.6251186,28.7839051 L45.6251186,28.7839051 Z M36.0677966,33.4907525 L39.9322034,33.4907525 L39.9322034,16.7449898 L36.0677966,16.7449898 L36.0677966,33.4907525 Z M34.779661,15.4568542 L32.8474576,15.4568542 C31.7821695,15.4568542 30.9152542,14.589939 30.9152542,13.5246508 C30.9152542,12.4593627 31.7821695,11.5924475 32.8474576,11.5924475 C33.9127458,11.5924475 34.779661,12.4593627 34.779661,13.5246508 L34.779661,15.4568542 Z M45.0847458,36.7110915 C45.0847458,37.7763797 44.2178305,38.6432949 43.1525424,38.6432949 L32.8474576,38.6432949 C31.7821695,38.6432949 30.9152542,37.7763797 30.9152542,36.7110915 C30.9152542,35.6458034 31.7821695,34.7788881 32.8474576,34.7788881 L43.1525424,34.7788881 C44.2178305,34.7788881 45.0847458,35.6458034 45.0847458,36.7110915 L45.0847458,36.7110915 Z M45.0847458,41.8636339 C45.0847458,42.928922 44.2178305,43.7958373 43.1525424,43.7958373 L32.8474576,43.7958373 C31.7821695,43.7958373 30.9152542,42.928922 30.9152542,41.8636339 C30.9152542,40.7983458 31.7821695,39.9314305 32.8474576,39.9314305 L43.1525424,39.9314305 C44.2178305,39.9314305 45.0847458,40.7983458 45.0847458,41.8636339 L45.0847458,41.8636339 Z M35.2730169,45.0839729 L40.7269831,45.0839729 L38,49.6298034 L35.2730169,45.0839729 Z M48.9491525,49.5924475 L48.9491525,57.9653288 L45.0847458,57.9653288 L45.0847458,49.5924475 L43.7966102,49.5924475 L43.7966102,74.7110915 L38.6440678,74.7110915 L38.6440678,59.8975322 L37.3559322,59.8975322 L37.3559322,74.7110915 L32.2033898,74.7110915 L32.2033898,49.5924475 L30.9152542,49.5924475 L30.9152542,57.9653288 L27.0508475,57.9653288 L27.0508475,49.5924475 C27.0508475,47.1069898 29.0738644,45.0839729 31.559322,45.0839729 L32.8474576,45.0839729 L33.7710508,45.0839729 L37.4480339,51.212922 C37.5639661,51.4054983 37.7732881,51.5246508 38,51.5246508 C38.2267119,51.5246508 38.4360339,51.4054983 38.5519661,51.212922 L42.2289492,45.0839729 L43.1525424,45.0839729 L44.440678,45.0839729 C46.9261356,45.0839729 48.9491525,47.1069898 48.9491525,49.5924475 L48.9491525,49.5924475 Z M16.3277627,24.8544475 C16.2685085,24.8228881 16.206678,24.7984136 16.1454915,24.7707186 C16.1036271,24.7513966 16.0636949,24.7307864 16.0211864,24.7133966 C15.855661,24.6457695 15.6849831,24.5936 15.5110847,24.5549559 C15.4711525,24.545939 15.4312203,24.5394983 15.3906441,24.5324136 C15.2012881,24.4976339 15.0087119,24.4738034 14.8135593,24.4738034 L12.8813559,24.4738034 L12.8813559,17.6557017 L16.5570508,13.9800068 L15.646339,13.0692949 L12.2372881,16.4783458 L8.82823729,13.0692949 L7.91752542,13.9800068 L11.5932203,17.6557017 L11.5932203,24.4738034 L9.66101695,24.4738034 C9.46586441,24.4738034 9.27328814,24.4976339 9.0839322,24.5324136 C9.04335593,24.5394983 9.00342373,24.545939 8.96349153,24.5549559 C8.78959322,24.5936 8.61891525,24.6464136 8.45338983,24.7133966 C8.41088136,24.7307864 8.37094915,24.7513966 8.32908475,24.7707186 C8.26854237,24.7984136 8.2060678,24.8228881 8.14681356,24.8544475 C4.7519322,23.2681085 2.57627119,19.8674305 2.57627119,16.100922 C2.57627119,10.7738373 6.91020339,6.43990508 12.2372881,6.43990508 C17.5643729,6.43990508 21.8983051,10.7738373 21.8983051,16.100922 C21.8983051,19.8674305 19.7226441,23.2681085 16.3277627,24.8544475 L16.3277627,24.8544475 Z M7.72881356,27.6941424 C7.72881356,27.0371932 8.05922034,26.4581763 8.56159322,26.1090915 C8.60023729,26.0820407 8.64210169,26.0614305 8.68267797,26.0376 C8.74,26.0034644 8.7979661,25.9699729 8.85915254,25.9416339 C8.90166102,25.9216678 8.94545763,25.9055661 8.98989831,25.8894644 C9.05816949,25.8637017 9.12772881,25.8418034 9.19922034,25.8244136 C9.23786441,25.8147525 9.27650847,25.8044475 9.31579661,25.7973627 C9.42786441,25.7761085 9.54250847,25.761939 9.66101695,25.761939 L14.8135593,25.761939 C14.9320678,25.761939 15.0467119,25.7761085 15.1594237,25.7967186 C15.1987119,25.8038034 15.2373559,25.8141085 15.276,25.8237695 C15.3474915,25.8418034 15.4170508,25.8637017 15.485322,25.8888203 C15.5291186,25.9055661 15.5729153,25.9216678 15.6160678,25.9409898 C15.6772542,25.9693288 15.7352203,26.0028203 15.7925424,26.0369559 C15.8331186,26.0607864 15.874339,26.0813966 15.9136271,26.1084475 C16.4153559,26.4581763 16.7457627,27.0371932 16.7457627,27.6941424 C16.7457627,28.7594305 15.8788475,29.6263458 14.8135593,29.6263458 L9.66101695,29.6263458 C8.59572881,29.6263458 7.72881356,28.7594305 7.72881356,27.6941424 L7.72881356,27.6941424 Z M18.6779661,30.9144814 C21.1634237,30.9144814 23.1864407,32.9374983 23.1864407,35.4229559 L23.1864407,43.7958373 L19.3220339,43.7958373 L19.3220339,35.4229559 L18.0338983,35.4229559 L18.0338983,60.5416 L12.8813559,60.5416 L12.8813559,45.7280407 L11.5932203,45.7280407 L11.5932203,60.5416 L6.44067797,60.5416 L6.44067797,35.4229559 L5.15254237,35.4229559 L5.15254237,43.7958373 L1.28813559,43.7958373 L1.28813559,35.4229559 C1.28813559,32.9374983 3.31115254,30.9144814 5.79661017,30.9144814 L9.66101695,30.9144814 L14.8135593,30.9144814 L18.6779661,30.9144814 Z M70.2033898,29.6263458 L68.8985085,29.6263458 C69.3074915,29.0866169 69.559322,28.421939 69.559322,27.6941424 C69.559322,26.968278 69.3087797,26.3048881 68.9023729,25.7658034 C72.4589153,23.8761085 74.7118644,20.1798034 74.7118644,16.100922 C74.7118644,10.0634305 69.8002034,5.15176949 63.7627119,5.15176949 C59.1531186,5.15176949 55.2075593,8.01915932 53.5954576,12.0606847 C52.8618644,9.20102373 51.3470169,6.59512542 49.1546102,4.48902373 C45.9658305,1.42519322 41.7587797,-0.161145763 37.3391864,0.0127525424 C30.2112881,0.297430508 24.1634915,5.37976949 22.4122712,12.0838712 C20.8066102,8.03010847 16.8558983,5.15176949 12.2372881,5.15176949 C6.19979661,5.15176949 1.28813559,10.0634305 1.28813559,16.100922 C1.28813559,20.1798034 3.54108475,23.8761085 7.09762712,25.7658034 C6.69122034,26.3048881 6.44067797,26.968278 6.44067797,27.6941424 C6.44067797,28.421939 6.69250847,29.0866169 7.10149153,29.6263458 L5.79661017,29.6263458 C2.60010169,29.6263458 0,32.2264475 0,35.4229559 L0,44.4399051 C0,44.7960746 0.287898305,45.0839729 0.644067797,45.0839729 L5.15254237,45.0839729 L5.15254237,61.1856678 C5.15254237,61.5418373 5.44044068,61.8297356 5.79661017,61.8297356 L12.2372881,61.8297356 L18.6779661,61.8297356 C19.0341356,61.8297356 19.3220339,61.5418373 19.3220339,61.1856678 L19.3220339,45.0839729 L23.8305085,45.0839729 C24.186678,45.0839729 24.4745763,44.7960746 24.4745763,44.4399051 L24.4745763,35.4229559 C24.4745763,32.2264475 21.8744746,29.6263458 18.6779661,29.6263458 L17.3730847,29.6263458 C17.7820678,29.0866169 18.0338983,28.421939 18.0338983,27.6941424 C18.0338983,26.968278 17.7833559,26.3048881 17.3769492,25.7658034 C19.7078305,24.527261 21.4770847,22.513261 22.4206441,20.1231254 C23.4601695,24.1427525 26.0248475,27.6683797 29.7018305,29.8826847 C31.0943051,30.721261 31.9844068,32.0673627 32.1653898,33.5667525 C30.7168814,33.8817017 29.6271186,35.1698373 29.6271186,36.7110915 C29.6271186,37.7680068 30.1462373,38.6999729 30.9352203,39.2873627 C30.1462373,39.8747525 29.6271186,40.8067186 29.6271186,41.8636339 C29.6271186,42.6468203 29.9195254,43.3565831 30.3864746,43.9156339 C27.7503051,44.4592271 25.7627119,46.7978373 25.7627119,49.5924475 L25.7627119,58.6093966 C25.7627119,58.9655661 26.0506102,59.2534644 26.4067797,59.2534644 L30.9152542,59.2534644 L30.9152542,75.3551593 C30.9152542,75.7113288 31.2031525,75.9992271 31.559322,75.9992271 L38,75.9992271 L44.440678,75.9992271 C44.7968475,75.9992271 45.0847458,75.7113288 45.0847458,75.3551593 L45.0847458,59.2534644 L49.5932203,59.2534644 C49.9493898,59.2534644 50.2372881,58.9655661 50.2372881,58.6093966 L50.2372881,49.5924475 C50.2372881,46.7978373 48.2496949,44.4592271 45.6135254,43.9156339 C46.0804746,43.3565831 46.3728814,42.6468203 46.3728814,41.8636339 C46.3728814,40.8067186 45.8537627,39.8747525 45.0647797,39.2873627 C45.8537627,38.6999729 46.3728814,37.7680068 46.3728814,36.7110915 C46.3728814,35.1698373 45.2831186,33.8810576 43.8339661,33.5667525 C44.0117288,32.0725153 44.8979661,30.7244814 46.2891525,29.8884814 C49.9867458,27.6651593 52.5552881,24.1768881 53.5903051,20.1482441 C54.5357966,22.5274305 56.3005424,24.5317695 58.6230508,25.7658034 C58.2166441,26.3048881 57.9661017,26.968278 57.9661017,27.6941424 C57.9661017,28.421939 58.2179322,29.0866169 58.6269153,29.6263458 L57.3220339,29.6263458 C54.1255254,29.6263458 51.5254237,32.2264475 51.5254237,35.4229559 L51.5254237,44.4399051 C51.5254237,44.7960746 51.813322,45.0839729 52.1694915,45.0839729 L56.6779661,45.0839729 L56.6779661,61.1856678 C56.6779661,61.5418373 56.9658644,61.8297356 57.3220339,61.8297356 L63.7627119,61.8297356 L70.2033898,61.8297356 C70.5595593,61.8297356 70.8474576,61.5418373 70.8474576,61.1856678 L70.8474576,45.0839729 L75.3559322,45.0839729 C75.7121017,45.0839729 76,44.7960746 76,44.4399051 L76,35.4229559 C76,32.2264475 73.3998983,29.6263458 70.2033898,29.6263458 L70.2033898,29.6263458 Z" id="Fill-1"></path>
            </g>
        </g>
    </g>
</svg>