<?xml version="1.0" encoding="UTF-8"?>
<svg width="75px" height="75px" viewBox="0 0 75 75" version="1.1" xmlns="http://www.w3.org/2000/svg" xmlns:xlink="http://www.w3.org/1999/xlink">
    <!-- Generator: Sketch 47.1 (45422) - http://www.bohemiancoding.com/sketch -->
    <title>welfare-02</title>
    <desc>Created with Sketch.</desc>
    <defs>
        <polygon id="path-1" points="39.0469565 74.9980435 39.0469565 0 5.79246795e-15 0 0 74.9980435 39.0469565 74.9980435"></polygon>
    </defs>
    <g id="Page-1" stroke="none" stroke-width="1" fill="none" fill-rule="evenodd">
        <g id="welfare-02" transform="translate(0.000000, -5.000000)">
            <rect id="Rectangle-2-Copy-2" x="0" y="0" width="98" height="80"></rect>
            <g id="Page-1" transform="translate(0.000000, 5.000000)">
                <path d="M22.8935,12.9101572 C22.3326304,12.9101572 21.7815435,12.6199398 21.4815435,12.0949398 L18.2206739,6.44711374 C17.767413,5.66450504 18.0348043,4.66993982 18.817413,4.21993982 C19.5935,3.76993982 20.5945869,4.03080939 21.0445869,4.81667895 L24.3054565,10.464505 C24.7554565,11.2438529 24.4880652,12.2384181 23.7087174,12.691679 C23.4511087,12.8384181 23.1706739,12.9101572 22.8935,12.9101572" id="Fill-1" fill="#444444"></path>
                <path d="M12.2804565,24.5188751 C12.0032826,24.5188751 11.7228478,24.4503968 11.4652391,24.3003968 L5.81741304,21.0395272 C5.03480434,20.5895272 4.76741304,19.5917011 5.22067391,18.8123533 C5.67067391,18.0330055 6.66849999,17.7721359 7.44784782,18.2156142 L13.0956739,21.4764837 C13.8750217,21.9264837 14.142413,22.9243098 13.6891522,23.7036577 C13.392413,24.2253968 12.8413261,24.5188751 12.2804565,24.5188751" id="Fill-3" fill="#444444"></path>
                <path d="M6.63263043,56.5210364 C6.07176086,56.5210364 5.52067391,56.2275582 5.22067391,55.7058191 C4.76741304,54.9297321 5.03480434,53.9286451 5.81741304,53.4786451 L11.4652391,50.2177756 C12.2413261,49.7710364 13.242413,50.031906 13.692413,50.8145147 C14.1456739,51.5938625 13.8782826,52.5916886 13.0956739,53.0449495 L7.44784782,56.3058191 C7.19023912,56.4525582 6.90980434,56.5210364 6.63263043,56.5210364" id="Fill-5" fill="#444444"></path>
                <path d="M19.6304689,69.907993 C19.353295,69.907993 19.0728602,69.8395147 18.8152515,69.6895147 C18.0359037,69.2395147 17.7685124,68.2416886 18.2185124,67.4623408 L21.4793819,61.8145147 C21.9293819,61.031906 22.927208,60.7710364 23.7065559,61.2177756 C24.4859037,61.6677756 24.753295,62.6656017 24.303295,63.4449495 L21.0424254,69.0927756 C20.7391646,69.6177756 20.1913385,69.907993 19.6304689,69.907993" id="Fill-7" fill="#444444"></path>
                <path d="M8.15217391,39.2608696 L1.63043478,39.2608696 C0.730434783,39.2608696 0,38.5304348 0,37.6304348 C0,36.7304348 0.730434783,36 1.63043478,36 L8.15217391,36 C9.05217391,36 9.7826087,36.7304348 9.7826087,37.6304348 C9.7826087,38.5304348 9.05217391,39.2608696 8.15217391,39.2608696" id="Fill-9" fill="#444444"></path>
                <g id="Group-13" transform="translate(35.869565, 0.000000)">
                    <mask id="mask-2" fill="white">
                        <use xlink:href="#path-1"></use>
                    </mask>
                    <g id="Clip-12"></g>
                    <path d="M26.2271739,53.5891304 C25.451087,53.1358696 25.1836957,52.1413043 25.6304348,51.3586957 C26.0804348,50.5826087 27.0815217,50.3152174 27.8576087,50.7652174 L34.8619565,54.8086957 C37.3336957,50.0836957 38.801087,44.7652174 39.048913,39.1304348 L30.975,39.1304348 C30.0782609,39.1304348 29.3445652,38.4032609 29.3445652,37.5 C29.3445652,36.6032609 30.0782609,35.8695652 30.975,35.8695652 L39.048913,35.8695652 C38.801087,30.2380435 37.3336957,24.9195652 34.8619565,20.1978261 L27.8576087,24.2413043 C27.0815217,24.6913043 26.0804348,24.423913 25.6304348,23.6413043 C25.1836957,22.8652174 25.451087,21.8641304 26.2271739,21.4173913 L33.2217391,17.3804348 C30.273913,12.7695652 26.3576087,8.85652174 21.75,5.90869565 L17.7163043,12.9 C17.2630435,13.6826087 16.2652174,13.95 15.4858696,13.5 C14.7097826,13.05 14.4423913,12.0521739 14.8891304,11.2695652 L18.9358696,4.26847826 C13.751087,1.55543478 7.86847826,0 1.63043478,0 C0.727173913,0 0,0.733695652 0,1.63043478 L0,73.3695652 C0,74.2728261 0.727173913,75 1.63043478,75 C7.86847826,75 13.751087,73.4478261 18.9358696,70.7380435 L14.8891304,63.7304348 C14.4423913,62.9543478 14.7097826,61.9532609 15.4858696,61.5065217 C16.2652174,61.0565217 17.2630435,61.323913 17.7163043,62.1 L21.75,69.0945652 C26.3576087,66.15 30.273913,62.2304348 33.2217391,57.6228261 L26.2271739,53.5891304 Z" id="Fill-11" fill="#444444" mask="url(#mask-2)"></path>
                </g>
            </g>
        </g>
    </g>
</svg>