<?xml version="1.0" encoding="UTF-8"?>
<svg width="52px" height="65px" viewBox="0 0 52 65" version="1.1" xmlns="http://www.w3.org/2000/svg" xmlns:xlink="http://www.w3.org/1999/xlink">
    <!-- Generator: Sketch 47.1 (45422) - http://www.bohemiancoding.com/sketch -->
    <title>welfare-09</title>
    <desc>Created with Sketch.</desc>
    <defs></defs>
    <g id="Page-1" stroke="none" stroke-width="1" fill="none" fill-rule="evenodd">
        <g id="welfare-09" transform="translate(0.000000, -15.000000)">
            <rect id="Rectangle-2-Copy-9" x="0" y="0" width="98" height="80"></rect>
            <g id="Page-1" transform="translate(0.000000, 15.000000)" fill="#444444">
                <path d="M52,16.0952381 C52,12.6780952 49.2291429,9.9047619 45.8095238,9.9047619 C42.3899048,9.9047619 39.6190476,12.6780952 39.6190476,16.0952381 C39.6190476,19.0889524 41.7460952,21.5874286 44.5714286,22.1619048 L44.5714286,48.2857143 C44.5714286,55.808381 38.4725714,61.9047619 30.952381,61.9047619 C23.4297143,61.9047619 17.3333333,55.808381 17.3333333,48.2857143 L17.3333333,34.619619 C25.6434286,33.9881905 32.1904762,27.0449524 32.1904762,18.5714286 L32.1904762,6.16819048 C32.1904762,4.12533333 30.5339048,2.47619048 28.4786667,2.47619048 L24.7619048,2.47619048 L24.7619048,1.23809524 C24.7619048,0.554666667 24.2072381,0 23.5238095,0 C22.840381,0 22.2857143,0.554666667 22.2857143,1.23809524 L22.2857143,6.19047619 C22.2857143,6.87390476 22.840381,7.42857143 23.5238095,7.42857143 C24.2072381,7.42857143 24.7619048,6.87390476 24.7619048,6.19047619 L24.7619048,4.95238095 L28.4786667,4.95238095 C29.1695238,4.95238095 29.7142857,5.49466667 29.7142857,6.16819048 L29.7142857,18.5714286 C29.7142857,26.0940952 23.6179048,32.1904762 16.0952381,32.1904762 C8.57257143,32.1904762 2.47619048,26.0940952 2.47619048,18.5714286 L2.47619048,6.16819048 C2.47619048,5.50952381 3.03580952,4.95238095 3.71180952,4.95238095 L7.42857143,4.95238095 L7.42857143,6.19047619 C7.42857143,6.87390476 7.9832381,7.42857143 8.66666667,7.42857143 C9.35009524,7.42857143 9.9047619,6.87390476 9.9047619,6.19047619 L9.9047619,1.23809524 C9.9047619,0.554666667 9.35009524,0 8.66666667,0 C7.9832381,0 7.42857143,0.554666667 7.42857143,1.23809524 L7.42857143,2.47619048 L3.71180952,2.47619048 C1.66895238,2.47619048 0,4.14019048 0,6.16819048 L0,18.5714286 C0,27.0449524 6.54704762,33.9881905 14.8571429,34.619619 L14.8571429,48.2857143 C14.8571429,57.1752381 22.0628571,64.3809524 30.952381,64.3809524 C39.8419048,64.3809524 47.047619,57.1752381 47.047619,48.2857143 L47.047619,22.1619048 C49.8729524,21.5874286 52,19.0889524 52,16.0952381" id="Fill-1"></path>
            </g>
        </g>
    </g>
</svg>