<?xml version="1.0" encoding="UTF-8"?>
<svg width="91px" height="76px" viewBox="0 0 91 76" version="1.1" xmlns="http://www.w3.org/2000/svg" xmlns:xlink="http://www.w3.org/1999/xlink">
    <!-- Generator: Sketch 47.1 (45422) - http://www.bohemiancoding.com/sketch -->
    <title>welfare-03</title>
    <desc>Created with Sketch.</desc>
    <defs>
        <polygon id="path-1" points="95.0002 -0.000240682967 95.0002 79.703715 0.0002 79.703715 0.0002 -0.000240682967 95.0002 -0.000240682967"></polygon>
    </defs>
    <g id="Page-1" stroke="none" stroke-width="1" fill="none" fill-rule="evenodd">
        <g id="welfare-03">
            <rect id="Rectangle-2-Copy-3" x="0" y="0" width="98" height="80"></rect>
            <g id="Page-1">
                <mask id="mask-2" fill="white">
                    <use xlink:href="#path-1"></use>
                </mask>
                <g id="Clip-2"></g>
                <path d="M85.5002,67.6764 C85.5002,68.9764 84.5002,69.9764 83.2002,69.9764 C81.8992,69.9764 80.8992,68.9764 80.8992,67.6764 C80.8992,66.3764 81.8992,65.3764 83.2002,65.3764 C84.5002,65.3764 85.5002,66.4764 85.5002,67.6764 M90.2002,47.2764 C90.2002,48.5764 89.2002,49.5764 87.8992,49.5764 C86.6002,49.5764 85.6002,48.5764 85.6002,47.2764 C85.6002,45.9764 86.6002,44.9764 87.8992,44.9764 C89.2002,44.9764 90.2002,45.9764 90.2002,47.2764 M77.8992,50.5764 C77.8992,51.8764 76.8992,52.8764 75.6002,52.8764 C74.3002,52.8764 73.3002,51.8764 73.3002,50.5764 C73.3002,49.2764 74.3002,48.2764 75.6002,48.2764 C76.8992,48.2764 77.8992,49.2764 77.8992,50.5764 M5.5002,58.5764 C5.5002,59.8764 4.5002,60.8764 3.2002,60.8764 C1.9002,60.8764 0.9002,59.8764 0.9002,58.5764 C0.9002,57.2774 1.9002,56.2774 3.2002,56.2774 C4.5002,56.2774 5.5002,57.3764 5.5002,58.5764 M2.3002,42.6764 C1.0002,42.6764 0.0002,41.6764 0.0002,40.3764 C0.1002,39.1764 1.1002,38.1764 2.3002,38.1764 C3.6002,38.1764 4.6002,39.1764 4.6002,40.4764 C4.6002,41.6764 3.6002,42.6764 2.3002,42.6764 M70.7002,63.1764 C70.7002,64.4764 69.7002,65.4764 68.3992,65.4764 C67.1002,65.4764 66.1002,64.4764 66.1002,63.1764 C66.1002,61.8764 67.1002,60.8764 68.3992,60.8764 C69.7002,60.8764 70.7002,61.8764 70.7002,63.1764 M34.6002,51.0764 C34.6002,52.3764 33.6002,53.3764 32.3002,53.3764 C31.0002,53.3764 30.0002,52.3764 30.0002,51.0764 C30.0002,49.7774 31.0002,48.7764 32.3002,48.7764 C33.6002,48.7764 34.6002,49.7774 34.6002,51.0764 M22.5002,42.8764 C22.5002,44.1764 21.5002,45.1764 20.2002,45.1764 C18.9002,45.1764 17.9002,44.1764 17.9002,42.8764 C17.9002,41.5764 18.9002,40.5764 20.2002,40.5764 C21.5002,40.5764 22.5002,41.5764 22.5002,42.8764 M29.6002,10.3764 C29.6002,9.0764 30.6002,8.0764 31.9002,8.0764 C33.2002,8.0764 34.2002,9.0764 34.2002,10.3764 C34.2002,11.6764 33.2002,12.6764 31.9002,12.6764 C30.6002,12.6764 29.6002,11.5764 29.6002,10.3764 M72.3992,5.6764 C72.3992,4.3764 73.3992,3.3764 74.7002,3.3764 C76.0002,3.3764 77.0002,4.3764 77.0002,5.6764 C77.0002,6.9764 76.0002,7.9764 74.7002,7.9764 C73.3992,7.9764 72.3992,6.8764 72.3992,5.6764 M56.0002,16.8764 C57.3002,16.8764 58.3002,17.8764 58.3002,19.1764 C58.3002,20.4764 57.3002,21.4764 56.0002,21.4764 C54.7002,21.4764 53.7002,20.4764 53.7002,19.1764 C53.7002,17.8764 54.8002,16.8764 56.0002,16.8764 M49.8992,6.9764 C49.8992,5.6764 50.8992,4.6764 52.2002,4.6764 C53.5002,4.6764 54.5002,5.6764 54.5002,6.9764 C54.5002,8.2764 53.5002,9.2764 52.2002,9.2764 C50.8992,9.2764 49.8992,8.2764 49.8992,6.9764 M22.1002,22.2764 C19.0002,22.8764 15.4002,23.5764 14.0002,20.9764 C13.5002,19.9764 13.6002,19.2764 13.8002,18.7764 C14.4002,17.1764 16.7002,16.3764 18.8002,15.6764 C19.9002,15.2764 21.9002,14.6764 22.0002,14.1764 C21.9002,12.9764 19.7002,11.6764 17.7002,10.5764 C16.6002,9.8764 15.4002,9.1764 14.5002,8.4764 C13.3002,7.4764 13.1002,6.3764 13.3002,5.5764 C13.7002,2.6764 18.1002,0.6764 19.5002,0.0764 C20.0002,-0.1236 20.6002,0.0764 20.8002,0.5764 C21.0002,1.0764 20.8002,1.6764 20.3002,1.8764 C17.5002,3.0764 15.5002,4.6764 15.3002,5.7764 C15.3002,5.8764 15.2002,6.2764 15.8002,6.7764 C16.6002,7.3764 17.7002,8.0764 18.8002,8.6764 C21.3002,10.1764 23.9002,11.6764 24.1002,13.9764 C24.2002,15.8764 21.9002,16.6764 19.5002,17.4764 C18.1002,17.9764 16.0002,18.6764 15.7002,19.3764 C15.7002,19.4764 15.6002,19.5764 15.8002,19.8764 C16.5002,21.1764 19.1002,20.6764 21.7002,20.1764 C24.5002,19.6764 27.4002,19.0764 28.9002,20.7764 C30.8002,23.0764 28.7002,26.3764 26.9002,28.9764 C26.1002,30.0764 25.3002,31.3764 25.2002,32.0764 C25.1002,32.5764 24.7002,32.9764 24.2002,32.9764 L24.1002,32.9764 C23.5002,32.8764 23.2002,32.3764 23.2002,31.8764 C23.3002,30.7764 24.2002,29.4764 25.3002,27.8764 C26.7002,25.8764 28.4002,23.2764 27.4002,22.1764 C26.6002,21.3764 24.2002,21.8764 22.1002,22.2764 M67.2002,27.8764 C66.6002,25.0764 65.6002,20.8764 69.3002,18.6764 C72.1002,16.9764 74.1002,19.7764 75.6002,21.7764 C76.5002,22.9764 77.3992,24.2764 78.2002,24.3764 C78.3002,24.3764 78.6002,24.3764 79.0002,24.0764 C80.3992,22.8764 79.6002,21.3764 78.2002,18.8764 C77.1002,17.0764 76.0002,15.1764 77.0002,13.5764 C78.3002,11.6764 80.3002,12.8764 81.5002,13.6764 C83.2002,14.7764 84.5002,15.3764 85.8002,14.3764 C86.7002,13.6764 87.2002,12.8764 87.3002,11.6764 C87.6002,9.2764 86.3002,6.3764 85.0002,4.6764 C84.7002,4.2764 84.7002,3.5764 85.2002,3.2764 C85.6002,2.9764 86.3002,2.9764 86.6002,3.4764 C88.2002,5.5764 89.7002,9.0764 89.3002,11.9764 C89.1002,13.6764 88.3002,14.9764 87.0002,15.9764 C84.5002,17.8764 82.0002,16.3764 80.3992,15.3764 C78.8992,14.4764 78.7002,14.4764 78.6002,14.6764 C78.3002,15.1764 79.1002,16.5764 79.8002,17.7764 C81.2002,20.0764 83.1002,23.1764 80.2002,25.5764 C79.3992,26.1764 78.7002,26.4764 77.8002,26.3764 C76.2002,26.1764 75.0002,24.5764 73.8002,22.9764 C72.0002,20.4764 71.2002,19.7764 70.1002,20.3764 C67.8992,21.6764 68.2002,24.1764 69.0002,27.3764 C69.2002,28.3764 69.3992,29.2764 69.3992,29.9764 C69.3992,30.5764 68.8992,30.9764 68.3992,30.9764 C67.8992,30.9764 67.3992,30.4764 67.3992,29.9764 C67.6002,29.5764 67.3992,28.7764 67.2002,27.8764 M31.1002,70.1764 C22.1002,73.8764 20.2002,73.7774 19.8002,73.5764 L19.7002,73.4764 C19.2002,72.1764 21.8002,65.3764 22.9002,62.4764 L23.1002,62.0764 C24.3002,58.7774 32.0002,38.7764 35.2002,30.1764 C36.5002,34.0764 40.0002,39.0764 44.1002,43.5764 C44.8002,44.3764 45.5002,45.0764 46.2002,45.7764 C51.8002,51.3764 57.6002,55.3764 61.8992,56.7774 C54.3002,60.1764 34.2002,68.9764 31.1002,70.1764 M38.3002,25.3764 C39.8002,25.3764 42.3002,26.2764 45.3002,28.1764 C45.2002,31.4764 44.8002,35.5764 44.2002,40.5764 C37.8002,33.1764 35.6002,27.2764 37.0002,25.7764 C37.3002,25.5764 37.7002,25.3764 38.3002,25.3764 M55.6002,36.4764 C57.3992,38.2764 58.8992,39.9764 60.3992,41.7764 C55.1002,43.8764 51.7002,46.1764 50.7002,47.0764 C49.7002,46.1764 48.8002,45.2764 47.8002,44.3764 C47.2002,43.7764 46.7002,43.1764 46.1002,42.5764 C46.7002,38.3764 47.1002,33.8764 47.3992,29.4764 C49.8002,31.1764 52.6002,33.4764 55.6002,36.4764 M64.8002,48.3764 C66.8002,52.1764 66.8002,54.2774 66.2002,54.9764 C65.8992,55.2774 65.5002,55.3764 64.8992,55.3764 C62.1002,55.3764 57.2002,52.6764 52.2002,48.3764 C53.5002,47.3764 56.8002,45.2764 61.7002,43.4764 C62.8992,45.1764 64.0002,46.8764 64.8002,48.3764 M67.6002,56.3764 C69.2002,54.7774 68.8992,51.6764 66.6002,47.3764 C65.8002,45.8764 64.8002,44.3764 63.6002,42.7764 C69.1002,40.9764 76.3992,39.6764 84.8992,40.7764 C85.5002,40.8764 86.0002,40.4764 86.0002,39.8764 C86.1002,39.2764 85.7002,38.7764 85.1002,38.7764 C75.8002,37.6764 68.1002,39.0764 62.3002,41.0764 C60.7002,39.0764 58.8992,37.0764 57.0002,35.0764 C53.8002,31.8764 50.5002,29.1764 47.3992,27.1764 C47.6002,21.2764 47.2002,16.0764 45.7002,13.5764 C44.1002,10.8764 42.2002,10.4764 40.9002,10.6764 C38.0002,11.1764 35.7002,14.7764 34.9002,18.0764 C34.8002,18.5764 35.1002,19.1764 35.7002,19.2764 C36.2002,19.3764 36.8002,19.0764 36.9002,18.4764 C37.6002,15.4764 39.5002,12.8764 41.2002,12.5764 C42.2002,12.4764 43.1002,13.0764 44.0002,14.4764 C44.7002,15.6764 45.6002,18.6764 45.5002,25.8764 C42.7002,24.2764 40.3002,23.3764 38.4002,23.3764 C37.2002,23.3764 36.3002,23.6764 35.7002,24.3764 C35.4002,24.6764 35.2002,25.0764 35.0002,25.4764 L34.9002,25.4764 C34.9002,25.4764 22.8002,57.1764 21.2002,61.3764 L21.0002,61.7774 C17.9002,69.8764 16.8002,73.6764 18.4002,75.0764 C18.4002,75.0764 18.5002,75.0764 18.5002,75.1764 C18.9002,75.4764 19.5002,75.6764 20.3002,75.6764 C22.3002,75.6764 25.9002,74.5764 31.9002,72.0764 C35.7002,70.4764 65.5002,57.4764 65.8002,57.3764 L65.8992,57.2774 C66.6002,57.0764 67.2002,56.8764 67.6002,56.3764" id="Fill-1" fill="#444444" mask="url(#mask-2)"></path>
            </g>
        </g>
    </g>
</svg>