<?xml version="1.0" encoding="UTF-8"?>
<svg width="65px" height="66px" viewBox="0 0 65 66" version="1.1" xmlns="http://www.w3.org/2000/svg" xmlns:xlink="http://www.w3.org/1999/xlink">
    <!-- Generator: Sketch 47.1 (45422) - http://www.bohemiancoding.com/sketch -->
    <title>welfare-05</title>
    <desc>Created with Sketch.</desc>
    <defs></defs>
    <g id="Page-1" stroke="none" stroke-width="1" fill="none" fill-rule="evenodd">
        <g id="welfare-05" transform="translate(0.000000, -14.000000)">
            <rect id="Rectangle-2-Copy-5" x="0" y="0" width="98" height="80"></rect>
            <g id="Page-1" transform="translate(0.000000, 14.000000)" fill="#444444">
                <path d="M57.1551438,63.1691936 L41.4651108,63.1691936 L41.4651108,39.5635389 C41.4651108,37.747978 39.9902477,36.2719941 38.173566,36.2719941 L26.82631,36.2719941 C25.0096283,36.2719941 23.5336445,37.747978 23.5336445,39.5635389 L23.5336445,63.1691936 L7.84361148,63.1691936 L7.84361148,25.953556 L32.4993776,3.05843572 L48.5032113,17.9191384 L54.9137105,23.8712645 L57.1551438,25.9524353 L57.1551438,63.1691936 Z M25.7750778,63.1691936 L25.7750778,39.5635389 C25.7750778,38.9841284 26.2457788,38.5134274 26.82631,38.5134274 L38.173566,38.5134274 C38.7529765,38.5134274 39.2236775,38.9841284 39.2236775,39.5635389 L39.2236775,63.1691936 L25.7750778,63.1691936 Z M45.9479773,8.25407808 L52.6722772,8.25407808 L52.6722772,18.731658 L45.9479773,12.4881456 L45.9479773,8.25407808 Z M64.6437724,29.8469256 L54.9137105,20.8128288 L54.9137105,6.01264479 L43.7065441,6.01264479 L43.7065441,10.4069747 L32.4993776,0 L0.357224307,29.8469256 C-0.0944244996,30.2683151 -0.121321699,30.9777287 0.300067759,31.431619 C0.7203365,31.8843885 1.42862942,31.910165 1.88364038,31.4898962 L5.60329891,28.0358475 L5.60329891,65.4106269 L23.5347652,65.4106269 L41.4662315,65.4106269 L59.3976978,65.4106269 L59.3976978,28.0347268 L63.1173563,31.4887755 C63.3336546,31.6893838 63.6082302,31.7880069 63.8805643,31.7880069 C64.1831578,31.7880069 64.4812685,31.6680902 64.7009289,31.4304983 C65.1223184,30.9777287 65.0954212,30.2683151 64.6437724,29.8469256 L64.6437724,29.8469256 Z" id="Fill-1"></path>
            </g>
        </g>
    </g>
</svg>