<?xml version="1.0" encoding="UTF-8"?>
<svg width="72px" height="69px" viewBox="0 0 72 69" version="1.1" xmlns="http://www.w3.org/2000/svg" xmlns:xlink="http://www.w3.org/1999/xlink">
    <!-- Generator: Sketch 47.1 (45422) - http://www.bohemiancoding.com/sketch -->
    <title>welfare-08</title>
    <desc>Created with Sketch.</desc>
    <defs></defs>
    <g id="Page-1" stroke="none" stroke-width="1" fill="none" fill-rule="evenodd">
        <g id="welfare-08" transform="translate(0.000000, -11.000000)">
            <rect id="Rectangle-2-Copy-7" x="0" y="0" width="98" height="80"></rect>
            <g id="Page-1" transform="translate(0.000000, 11.000000)" fill="#444444">
                <path d="M11.9528897,7.72641783 C11.9528897,4.68336986 14.4199479,2.21631165 17.4629959,2.21631165 C20.5060438,2.21631165 22.9731021,4.68263517 22.9731021,7.72641783 C22.9731021,10.7694658 20.5060438,13.236524 17.4629959,13.236524 C14.4214173,13.2321159 11.9565631,10.7679964 11.9528897,7.72641783 L11.9528897,7.72641783 Z M35.7932825,25.9391555 C37.9929168,25.9391555 39.7752525,27.7214912 39.7752525,29.9211256 C39.7752525,32.1200253 37.9929168,33.9030956 35.7932825,33.9030956 C33.5943827,33.9030956 31.8113124,32.1200253 31.8113124,29.9211256 C31.8113124,27.7214912 33.5943827,25.9391555 35.7932825,25.9391555 L35.7932825,25.9391555 Z M48.6134629,7.72641783 C48.6134629,4.68336986 51.0805211,2.21631165 54.123569,2.21631165 C57.166617,2.21631165 59.6336752,4.68263517 59.6336752,7.72641783 C59.6336752,10.7694658 57.166617,13.236524 54.123569,13.236524 C51.0819904,13.2321159 48.6178709,10.7679964 48.6134629,7.72641783 L48.6134629,7.72641783 Z M61.0001816,66.5963923 L55.0639605,66.5963923 L55.0639605,49.0448674 L61.0295688,49.0448674 L61.0001816,66.5963923 Z M47.1808352,66.5963923 L47.1808352,49.0448674 L52.8305308,49.0448674 L52.8305308,66.5963923 L47.2102225,66.5963923 L47.1808352,66.5963923 Z M42.7727503,53.3721375 L40.2013674,53.3721375 C39.6415406,53.3721375 39.1698755,53.7923749 39.106693,54.349263 L37.7475335,66.5963923 L33.8390315,66.5963923 L32.4798719,54.349263 C32.4166894,53.7923749 31.9450243,53.3721375 31.3851975,53.3721375 L28.8138146,53.3721375 L28.8138146,45.2906484 C28.8138146,41.4357781 31.9391468,38.3111806 35.7932825,38.3111806 C39.6481527,38.3111806 42.7727503,41.4357781 42.7727503,45.2906484 L42.7727503,53.3721375 Z M3.46732615,42.8882421 C5.05129801,42.8897115 6.43470201,41.8156081 6.82481752,40.2801252 L8.35295364,34.2483956 L8.35295364,47.2081654 L8.35295364,47.2662052 L8.35295364,47.3249796 L8.35295364,67.6984136 C8.35295364,68.3067293 8.84592447,68.8004348 9.45497488,68.8004348 L25.4783637,68.8004348 C26.0874141,68.8004348 26.5803849,68.3067293 26.5803849,67.6984136 L26.5803849,47.3249796 L26.5803849,47.2662052 L26.5803849,47.2081654 L26.5803849,25.7628321 C26.5803849,25.1537817 26.0874141,24.6608109 25.4783637,24.6608109 C24.870048,24.6608109 24.3763424,25.1537817 24.3763424,25.7628321 L24.3763424,47.2081654 L24.3763424,47.2662052 L24.3763424,47.3249796 L24.3763424,66.5963923 L18.5650171,66.5963923 L18.5650171,46.4734845 C18.5650171,45.8644341 18.0720463,45.3714633 17.4629959,45.3714633 C16.8546801,45.3714633 16.3609746,45.8644341 16.3609746,46.4734845 L16.3609746,66.5963923 L10.5569961,66.5963923 L10.5569961,47.3249796 L10.5569961,47.2662052 L10.5569961,47.2081654 L10.5569961,25.7628321 C10.5614042,25.7040576 10.5614042,25.6452832 10.5569961,25.5865087 C10.6253214,24.9818664 10.1903904,24.4359985 9.58574807,24.3676732 C9.05310447,24.3074294 8.55499087,24.6395051 8.4043813,25.153047 L4.73097717,39.7438082 C4.56861271,40.4197145 3.88903295,40.8355439 3.21386127,40.6731794 C2.53868959,40.510815 2.12212556,39.8312352 2.28449003,39.1560635 L4.86321972,27.5187193 C6.43911009,20.5737814 13.3458445,16.2215322 20.2900477,17.7974226 C25.1315943,18.8957704 28.9129965,22.6771726 30.0113444,27.5187193 L30.0113444,27.5995342 C28.7197755,30.7623351 30.2368914,34.3732914 33.3989576,35.6648602 C36.5624933,36.9571638 40.1734495,35.4400479 41.4650184,32.277247 C42.0770076,30.7777634 42.0770076,29.098283 41.4650184,27.5995342 L41.4650184,27.5187193 C43.0409088,20.5737814 49.9476432,16.2215322 56.8918464,17.7974226 C61.733393,18.8957704 65.5147952,22.6771726 66.6131431,27.5187193 L69.184526,38.4434231 C69.4115423,39.4315688 68.7951451,40.4175105 67.8062647,40.6445269 C67.6696141,40.6761182 67.5314941,40.6915465 67.3919047,40.6915465 L66.9437494,40.6915465 L63.204224,25.498347 C63.0807977,24.9017862 62.4974611,24.5190175 61.9023696,24.6417092 C61.3058088,24.7651355 60.9230401,25.3484721 61.0457318,25.9442983 C61.0516092,25.9722161 61.0582214,26.000134 61.0663028,26.0273172 L66.2090686,46.840825 L44.9767928,46.840825 L44.9767928,45.2906484 C44.9767928,44.057854 44.7262666,42.8382838 44.2421119,41.705406 L47.1808352,25.9685427 C47.2109572,25.360227 46.7414961,24.8437464 46.1339151,24.8143591 C45.6321281,24.7901147 45.1780953,25.1074968 45.0282204,25.5865087 L42.5016531,39.0385146 C39.0574694,35.3254377 33.2564296,35.1079722 29.5433527,38.5514212 C27.6684472,40.2904107 26.6053641,42.7332245 26.6097721,45.2906484 L26.6097721,54.4741587 C26.6097721,55.0824745 27.1034777,55.57618 27.7117934,55.57618 L30.4007252,55.57618 L31.7598847,67.8233093 C31.8230673,68.3801974 32.2939977,68.8004348 32.8545592,68.8004348 L38.7320058,68.8004348 C39.2918325,68.8004348 39.7634976,68.3801974 39.8266802,67.8233093 L41.1865744,55.57618 L43.8747715,55.57618 C44.4838219,55.57618 44.9767928,55.0824745 44.9767928,54.4741587 L44.9767928,49.0448674 L44.9767928,67.6984136 C44.9767928,68.3067293 45.4704983,68.8004348 46.078814,68.8004348 L62.1683241,68.8004348 C62.7766398,68.8004348 63.2703453,68.3067293 63.2703453,67.6984136 L63.2703453,49.0448674 L67.6350841,49.0448674 C68.2433998,49.0463368 68.73784,48.5541006 68.7385747,47.9450502 C68.7393094,47.8554192 68.7290238,47.7657881 68.7069834,47.6783611 L67.5241473,42.8882421 C69.7509649,42.8434266 71.520811,41.0015818 71.4759955,38.7747642 C71.470118,38.4970548 71.435588,38.2215495 71.3738748,37.951187 L68.8465728,27.0558703 C67.4124758,20.5899444 61.9111858,15.828478 55.3064052,15.3377112 C59.5161263,14.6823759 62.3975445,10.7386092 61.7422092,6.52888809 C61.0868739,2.31916696 57.1431072,-0.562251235 52.9333861,0.0930840605 C48.723665,0.747684676 45.8422468,4.69218603 46.4975821,8.90190715 C47.0140627,12.2189911 49.6163022,14.8212306 52.9333861,15.3377112 C46.994961,15.779989 41.8823171,19.6965725 39.9074951,25.3146768 C37.569006,23.2090815 34.0182936,23.2090815 31.6790698,25.3146768 C29.7035131,19.6943685 24.5871958,15.7770503 18.645832,15.3377112 C22.8555531,14.6823759 25.7369713,10.7386092 25.081636,6.52888809 C24.4263007,2.31916696 20.4825341,-0.562251235 16.2728129,0.0930840605 C12.0630918,0.747684676 9.18167361,4.69218603 9.83700891,8.90190715 C10.3534895,12.2189911 12.955729,14.8212306 16.2728129,15.3377112 C9.67170572,15.8321514 4.17335443,20.5928831 2.73999214,27.0558703 L0.0877943586,38.6638274 C-0.33832052,40.526978 0.826883269,42.382047 2.69003384,42.8081619 C2.94496809,42.8669364 3.20577978,42.8963236 3.46732615,42.8955889 L3.46732615,42.8882421 Z" id="Fill-1"></path>
            </g>
        </g>
    </g>
</svg>