<?xml version="1.0" encoding="UTF-8"?>
<svg width="72px" height="72px" viewBox="0 0 72 72" version="1.1" xmlns="http://www.w3.org/2000/svg" xmlns:xlink="http://www.w3.org/1999/xlink">
    <!-- Generator: Sketch 47.1 (45422) - http://www.bohemiancoding.com/sketch -->
    <title>welfare-10</title>
    <desc>Created with Sketch.</desc>
    <defs>
        <polygon id="path-1" points="27.8698606 36 0 36 0 18.3458512 0 0.691702326 27.8698606 0.691702326"></polygon>
        <polygon id="path-3" points="53.4272651 0.248651163 0.732474419 0.248651163 0.732474419 31.578614 53.4272651 31.578614 53.4272651 0.248651163"></polygon>
    </defs>
    <g id="Page-1" stroke="none" stroke-width="1" fill="none" fill-rule="evenodd">
        <g id="welfare-10" transform="translate(0.000000, -8.000000)">
            <rect id="Rectangle-2-Copy-10" x="0" y="0" width="98" height="80"></rect>
            <g id="Page-1" transform="translate(0.000000, 8.000000)">
                <path d="M19.0432465,32.9942512 C16.3641767,32.9942512 14.1840837,30.8141581 14.1840837,28.1350884 C14.1840837,25.4560186 16.3641767,23.2759256 19.0432465,23.2759256 C21.7231535,23.2759256 23.9024093,25.4560186 23.9024093,28.1350884 C23.9024093,30.8141581 21.7231535,32.9942512 19.0432465,32.9942512 M19.0432465,21.1820651 C15.2096651,21.1820651 12.0910605,24.3006698 12.0910605,28.1342512 C12.0910605,31.9678326 15.2096651,35.0864372 19.0432465,35.0864372 C22.8768279,35.0864372 25.9954326,31.9678326 25.9954326,28.1342512 C25.9954326,24.3006698 22.8768279,21.1820651 19.0432465,21.1820651" id="Fill-1" fill="#444444"></path>
                <path d="M36.2779535,43.9184093 C34.4695814,43.9184093 32.9986047,42.4465953 32.9986047,40.6382233 C32.9986047,38.8298512 34.4695814,37.3588744 36.2779535,37.3588744 C38.0863256,37.3588744 39.5573023,38.8298512 39.5573023,40.6382233 C39.5573023,42.4465953 38.0854884,43.9184093 36.2779535,43.9184093 M36.2779535,35.265014 C33.3150698,35.265014 30.9055814,37.6745023 30.9055814,40.637386 C30.9055814,43.6002698 33.3150698,46.0105953 36.2779535,46.0105953 C39.2408372,46.0105953 41.6503256,43.6002698 41.6503256,40.637386 C41.6503256,37.6745023 39.24,35.265014 36.2779535,35.265014" id="Fill-3" fill="#444444"></path>
                <path d="M52.9174884,36.8708651 C50.5473488,36.8708651 48.6184186,34.9427721 48.6184186,32.5717953 C48.6184186,30.2016558 50.5473488,28.2735628 52.9174884,28.2735628 C55.2876279,28.2735628 57.2165581,30.2016558 57.2165581,32.5717953 C57.2165581,34.9427721 55.2876279,36.8708651 52.9174884,36.8708651 M52.9174884,26.1805395 C49.3928372,26.1805395 46.5253953,29.0479814 46.5253953,32.5717953 C46.5253953,36.0964465 49.3928372,38.9638884 52.9174884,38.9638884 C56.4421395,38.9638884 59.3095814,36.0964465 59.3095814,32.5717953 C59.3095814,29.0479814 56.4421395,26.1805395 52.9174884,26.1805395" id="Fill-5" fill="#444444"></path>
                <g id="Group-9" transform="translate(0.000000, 35.751349)">
                    <mask id="mask-2" fill="white">
                        <use xlink:href="#path-1"></use>
                    </mask>
                    <g id="Clip-8"></g>
                    <path d="M25.7776744,21.9250047 C25.7776744,24.1963535 24.6407442,26.3002605 22.736093,27.5518884 L22.2647442,27.862493 L22.2647442,33.9071442 L15.8232558,33.9071442 L15.8232558,27.8616558 L15.351907,27.5510512 C13.4472558,26.2994233 12.3103256,24.1955163 12.3103256,21.9241674 L12.3103256,9.5184 C12.3103256,6.16202791 14.7817674,3.3799814 17.9983256,2.87430698 L17.9983256,11.7403535 L20.0913488,11.7403535 L20.0913488,2.87430698 C23.307907,3.3799814 25.7776744,6.16202791 25.7776744,9.5184 L25.7776744,21.9250047 Z M19.044,0.691702326 C14.1764651,0.691702326 10.2164651,4.65086512 10.2164651,9.5184 L10.2164651,21.9241674 C10.2164651,24.7095628 11.52,27.3015628 13.7302326,28.9676093 L13.7302326,30.034214 L4.29069767,30.034214 L4.29069767,32.1272372 L13.7302326,32.1272372 L13.7302326,33.9071442 L0,33.9071442 L0,36.0001674 L24.3167442,36.0001674 L24.356093,28.9684465 C26.5663256,27.3024 27.8698605,24.7104 27.8698605,21.9250047 L27.8698605,9.5184 C27.8706977,4.65170233 23.9106977,0.691702326 19.044,0.691702326 L19.044,0.691702326 Z" id="Fill-7" fill="#444444" mask="url(#mask-2)"></path>
                </g>
                <path d="M34.1992465,69.6581581 L34.1992465,66.4776 L33.7278977,66.1669953 C32.4118047,65.3021581 31.6256651,63.8487628 31.6256651,62.2798326 L31.6256651,53.1910884 C31.6256651,50.9858791 33.1694791,49.1381581 35.2323628,48.6609488 L35.2323628,52.3907163 L37.325386,52.3907163 L37.325386,48.661786 C39.3882698,49.1381581 40.9320837,50.9858791 40.9320837,53.1910884 L40.9320837,62.2798326 C40.9320837,63.8487628 40.1467814,65.3013209 38.8306884,66.1678326 L38.3593395,66.4776 L38.3593395,69.6581581 L34.1992465,69.6581581 Z M40.4506884,67.577693 C42.0723628,66.301786 43.0234326,64.3611349 43.0234326,62.2798326 L43.0234326,53.1910884 C43.0234326,49.4722047 39.9969209,46.4448558 36.2772,46.4448558 C32.5574791,46.4448558 29.5309674,49.4713674 29.5309674,53.1910884 L29.5309674,62.2798326 C29.5309674,64.3602977 30.4837116,66.3009488 32.105386,67.5768558 L32.105386,69.6581581 L27.941107,69.6581581 L27.941107,71.7511814 L44.7907814,71.7511814 L44.7907814,69.6581581 L40.4506884,69.6581581 L40.4506884,67.577693 Z" id="Fill-10" fill="#444444"></path>
                <g id="Group-14" transform="translate(10.046512, 0.588558)">
                    <mask id="mask-4" fill="white">
                        <use xlink:href="#path-3"></use>
                    </mask>
                    <g id="Clip-13"></g>
                    <path d="M4.93861395,14.0725674 L4.51666047,14.0725674 C9.67973023,6.69256744 17.9798233,2.3415907 27.0777767,2.3415907 C35.4758233,2.3415907 43.1957302,6.0495907 48.3948,12.4257767 C47.5450326,11.9050326 46.5579628,11.6161953 45.5214977,11.6161953 C43.7164744,11.6161953 42.054614,12.4935907 41.0223349,13.9503349 C39.9900558,12.4935907 38.3281953,11.6161953 36.5223349,11.6161953 C34.7173116,11.6161953 33.0554512,12.4935907 32.0231721,13.9503349 C30.990893,12.4935907 29.3290326,11.6161953 27.5231721,11.6161953 C25.7173116,11.6161953 24.0554512,12.4935907 23.0231721,13.9511721 C21.9900558,12.4944279 20.3290326,11.6161953 18.5231721,11.6161953 C16.7173116,11.6161953 15.0554512,12.4935907 14.0231721,13.9503349 C12.990893,12.4935907 11.3290326,11.6161953 9.52317209,11.6161953 C7.66791628,11.6161953 5.96419535,12.542986 4.93861395,14.0725674 L4.93861395,14.0725674 Z M6.46568372,15.5971256 C7.06428837,14.4325674 8.23554419,13.7092186 9.52317209,13.7092186 C10.8108,13.7092186 11.9820558,14.4325674 12.5806605,15.5971256 L12.8728465,16.1655907 L15.1743349,16.1655907 L15.4665209,15.5971256 C16.0651256,14.4325674 17.2363814,13.7092186 18.5240093,13.7092186 C19.8116372,13.7092186 20.982893,14.4325674 21.5814977,15.5971256 L21.8736837,16.1655907 L24.1760093,16.1655907 L24.4681953,15.5971256 C24.8206605,14.910614 25.3757302,14.3823349 26.0337767,14.0608465 L26.0337767,27.6018698 C26.0337767,28.6400093 25.1890326,29.4855907 24.1500558,29.4855907 C23.1110791,29.4855907 22.2663349,28.6408465 22.2663349,27.6018698 L20.1733116,27.6018698 C20.1733116,29.7945209 21.9574047,31.578614 24.1500558,31.578614 C26.342707,31.578614 28.1268,29.7945209 28.1268,27.6018698 L28.1268,13.7694977 C29.1682884,13.9570326 30.0791721,14.6184279 30.5831721,15.5979628 L30.8753581,16.1664279 L33.1760093,16.1664279 L33.4681953,15.5979628 C34.0676372,14.4334047 35.2380558,13.7100558 36.5248465,13.7100558 C37.8116372,13.7100558 38.9845674,14.4334047 39.5823349,15.5979628 L39.8745209,16.1664279 L42.1751721,16.1664279 L42.4673581,15.5979628 C43.0668,14.4334047 44.2372186,13.7100558 45.5240093,13.7100558 C46.8108,13.7100558 47.9837302,14.4334047 48.5814977,15.5979628 L48.8736837,16.1664279 L53.4272651,16.1664279 L52.4661488,14.5782419 C47.0393581,5.60503256 37.5487535,0.248567442 27.0777767,0.248567442 C16.6068,0.248567442 7.11619535,5.60503256 1.69191628,14.5782419 L0.732474419,16.1655907 L6.17433488,16.1655907 L6.46568372,15.5971256 Z" id="Fill-12" fill="#444444" mask="url(#mask-4)"></path>
                </g>
                <path d="M56.2050419,64.3201116 L55.7345302,64.6298791 L55.7345302,69.6581581 L50.1026233,69.6581581 L50.1026233,64.6298791 L49.6312744,64.3201116 C47.9359256,63.2041116 46.9229023,61.3321116 46.9229023,59.3102512 L46.9229023,48.0816 C46.9229023,45.1329488 49.0653209,42.6807628 51.8716465,42.1834605 L51.8716465,48.1000186 L53.9646698,48.1000186 L53.9646698,42.1834605 C56.7726698,42.6807628 58.9142512,45.1321116 58.9142512,48.0816 L58.9142512,59.3102512 C58.913414,61.3321116 57.9003907,63.2041116 56.2050419,64.3201116 L56.2050419,64.3201116 Z M57.8267163,69.6581581 L57.8267163,67.8790884 L67.6044837,67.8790884 L67.6044837,65.7860651 L57.8267163,65.7860651 L57.8267163,65.7333209 C59.8276465,64.205414 61.0064372,61.8436465 61.0064372,59.309414 L61.0064372,48.0816 C61.0064372,43.621786 57.3779721,39.9933209 52.9173209,39.9933209 C48.457507,39.9933209 44.8290419,43.621786 44.8290419,48.0816 L44.8290419,59.3102512 C44.8290419,61.8444837 46.0078326,64.2070884 48.0096,65.7349953 L48.0096,71.7511814 L71.8951814,71.7511814 L71.8951814,69.6581581 L57.8267163,69.6581581 Z" id="Fill-15" fill="#444444"></path>
            </g>
        </g>
    </g>
</svg>