<?xml version="1.0" encoding="UTF-8"?>
<svg width="66px" height="70px" viewBox="0 0 66 70" version="1.1" xmlns="http://www.w3.org/2000/svg" xmlns:xlink="http://www.w3.org/1999/xlink">
    <!-- Generator: Sketch 47.1 (45422) - http://www.bohemiancoding.com/sketch -->
    <title>welfare-01</title>
    <desc>Created with Sketch.</desc>
    <defs></defs>
    <g id="Page-1" stroke="none" stroke-width="1" fill="none" fill-rule="evenodd">
        <g id="welfare-01" transform="translate(0.000000, -10.000000)">
            <rect id="Rectangle-2-Copy" x="0" y="0" width="98" height="80"></rect>
            <g id="Page-1" transform="translate(0.000000, 10.000000)" fill="#444444">
                <path d="M2.98365205,24.9536055 C2.98365205,25.6768932 3.61652877,26.3097699 4.33981644,26.3097699 L61.1178986,26.3097699 C61.8411863,26.3097699 62.474063,25.6768932 62.474063,24.9536055 C62.474063,24.2303178 61.8411863,23.5974411 61.1178986,23.5974411 L4.33981644,23.5974411 C3.61652877,23.5974411 2.98365205,24.2303178 2.98365205,24.9536055" id="Fill-1"></path>
                <g id="Group-5" transform="translate(0.000000, 0.723288)">
                    <path d="M45.0242959,7.41378904 L45.0242959,10.5781726 C45.0242959,11.3014603 45.6571726,11.934337 46.3804603,11.934337 C47.1046521,11.934337 47.7366247,11.3014603 47.7366247,10.5781726 L47.7366247,7.41378904 L55.0608164,7.41378904 C59.3101315,7.41378904 62.7457479,10.8494055 62.7457479,15.0987205 L62.7457479,58.3151589 C62.7457479,62.564474 59.3101315,66.0000904 55.0608164,66.0000904 L10.3968986,66.0000904 C6.14758356,66.0000904 2.71196712,62.564474 2.71196712,58.3151589 L2.71196712,15.0987205 C2.71196712,10.8494055 6.14758356,7.41378904 10.3968986,7.41378904 L17.7201863,7.41378904 L17.7201863,10.5781726 C17.7201863,11.3014603 18.353063,11.934337 19.0763507,11.934337 C19.8005425,11.934337 20.4325151,11.3014603 20.4325151,10.5781726 L20.4325151,7.41378904 L45.0242959,7.41378904 Z M19.0763507,0.180912329 C18.353063,0.180912329 17.7201863,0.813789041 17.7201863,1.53707671 L17.7201863,4.70146027 L10.3968986,4.70146027 C4.70100822,4.70146027 -0.000361643836,9.40283014 -0.000361643836,15.0987205 L-0.000361643836,58.3151589 C-0.000361643836,64.0110493 4.70100822,68.7124192 10.3968986,68.7124192 L54.9695014,68.7124192 C60.6662959,68.7124192 65.3667616,64.0110493 65.3667616,58.3151589 L65.3667616,15.0987205 C65.3667616,9.40283014 60.6662959,4.70146027 54.9695014,4.70146027 L47.6462137,4.70146027 L47.6462137,1.53707671 C47.6462137,0.813789041 47.013337,0.180912329 46.2900493,0.180912329 C45.5676658,0.180912329 44.9338849,0.813789041 44.9338849,1.53707671 L44.9338849,4.70146027 L20.4325151,4.70146027 L20.4325151,1.53707671 C20.4325151,0.813789041 19.8900493,0.180912329 19.0763507,0.180912329 L19.0763507,0.180912329 Z" id="Fill-3"></path>
                </g>
            </g>
            <text id="15" font-family="SpoqaHanSans-Bold, SpoqaHanSans" font-size="28" font-weight="bold" fill="#444444">
                <tspan x="15.812" y="66">15</tspan>
            </text>
        </g>
    </g>
</svg>