<?xml version="1.0" encoding="UTF-8"?>
<svg width="77px" height="78px" viewBox="0 0 77 78" version="1.1" xmlns="http://www.w3.org/2000/svg" xmlns:xlink="http://www.w3.org/1999/xlink">
    <!-- Generator: Sketch 47.1 (45422) - http://www.bohemiancoding.com/sketch -->
    <title>welfare-04</title>
    <desc>Created with Sketch.</desc>
    <defs></defs>
    <g id="Page-1" stroke="none" stroke-width="1" fill="none" fill-rule="evenodd">
        <g id="welfare-04" transform="translate(0.000000, -2.000000)">
            <rect id="Rectangle-2-Copy-4" x="0" y="0" width="98" height="80"></rect>
            <g id="Page-1" transform="translate(0.000000, 2.000000)" fill="#444444">
                <g id="Group-3" transform="translate(0.000000, 0.057988)">
                    <path d="M63.5196765,17.3525679 C61.496763,17.3525679 59.3179481,17.8136173 57.0535778,18.9971358 C57.6600716,17.4980123 58.660121,16.1861605 59.981479,15.188963 C61.8903185,13.7468765 64.2430963,13.1365802 66.6053802,13.4664444 C70.8413309,14.0605802 73.9812198,17.5588519 74.3186889,21.6845309 C72.2472938,19.9582099 68.3250469,17.3525679 63.5196765,17.3525679 M66.7413185,29.933037 C65.9275901,27.002284 63.7145531,22.0704815 57.9290963,20.8289753 C58.806516,20.4002469 59.7742444,20.1701975 60.7790469,20.1625926 L60.8303802,20.1625926 C62.5861704,20.1625926 64.2402444,20.8451358 65.4941086,22.0875926 C67.616837,24.1941605 68.0360593,27.3939383 66.7413185,29.933037 M42.0518864,26.4699383 C41.4938741,23.6703704 42.7648494,20.7072963 45.3790469,19.2652099 C46.3714914,18.7176543 47.4608988,18.4391235 48.5626642,18.4391235 C49.1843679,18.4391235 49.8098741,18.5284815 50.4230222,18.7071975 C51.3917012,18.9904815 52.2653185,19.4790988 52.9963432,20.1369259 C47.1044173,19.7234074 43.6318123,23.8766543 42.0518864,26.4699383 M37.2065901,16.2774198 C37.7836148,14.7554815 38.7836642,13.4208148 40.123084,12.4084074 C42.0547383,10.9492099 44.4521951,10.330358 46.8819728,10.6725802 C51.0428247,11.2562593 54.1627506,14.5415926 54.6399605,18.4543333 C51.4782074,15.5245309 47.9951457,14.6043333 44.8638123,14.6043333 C41.7334296,14.6043333 38.9557259,15.5245309 37.2065901,16.2774198 M42.6754914,4.71981481 C43.7820099,3.78155556 45.1242815,3.15985185 46.5891827,2.926 C48.7081086,2.5904321 50.8289358,3.1018642 52.5666642,4.36903704 C55.5306889,6.53264198 56.5972815,10.3655309 55.4194667,13.673679 C52.8870222,6.5392963 46.1728123,5.01735802 42.6754914,4.71981481 M62.9084296,5.8187284 C63.8086642,5.48696296 64.7421704,5.32345679 65.6728247,5.32345679 C66.8202198,5.32345679 67.964763,5.57346914 69.0370593,6.07159259 C70.388837,6.69995062 71.5153185,7.66862963 72.3271457,8.87876543 C68.881158,8.20097531 62.0129481,7.82262963 57.6420099,13.9864321 C57.4053062,10.4796049 59.4709975,7.08495062 62.9084296,5.8187284 M56.1400346,16.4361728 C56.1523926,16.4171605 56.1647506,16.3981481 56.1771086,16.3791358 C56.1913679,16.4238148 56.2037259,16.4694444 56.2189358,16.5141235 C56.2075284,16.5321852 56.1951704,16.5492963 56.1847136,16.567358 C56.1714049,16.522679 56.1542938,16.4799012 56.1400346,16.4361728 M66.8696519,11.5851728 C65.5074173,11.3940988 64.1489852,11.4691975 62.8494914,11.7800494 C67.7679852,9.06508642 73.4621827,11.0956049 73.7872938,11.2153827 C74.1323679,11.3446667 74.5249728,11.2591111 74.7873432,10.9976914 C75.0497136,10.7362716 75.138121,10.3465185 75.0116889,9.99954321 C74.0971951,7.47945679 72.2596519,5.47080247 69.8384296,4.34717284 C67.4343185,3.22924691 64.7393185,3.11802469 62.2525037,4.03441975 C60.1487877,4.80822222 58.4709481,6.23319753 57.338763,7.99469136 C56.7284667,5.98888889 55.5012198,4.15609877 53.6883926,2.83283951 C51.5399975,1.2652716 48.9143926,0.629308642 46.2906889,1.04853086 C43.6622321,1.46680247 41.355084,2.8927284 39.7932198,5.06203704 C39.576479,5.36148148 39.5546148,5.76074074 39.7361827,6.083 C39.9177506,6.40620988 40.2732815,6.59538272 40.6392691,6.56496296 C40.6687383,6.56116049 43.560516,6.35012346 46.6975531,7.47565432 C48.3725407,8.07644444 49.7689975,8.94340741 50.9106889,10.0432716 C49.7718494,9.4215679 48.508479,8.98048148 47.1462444,8.78940741 C44.216442,8.38064198 41.3161086,9.12592593 38.9775901,10.8912222 C36.6980099,12.6137407 35.2283556,15.1091111 34.8386025,17.9181852 C34.7882198,18.2832222 34.9536272,18.6454074 35.2625778,18.8459877 C35.572479,19.0484691 35.9707877,19.0503704 36.2825901,18.8554938 C36.310158,18.8383827 39.0479358,17.1519877 42.7258741,16.6310494 C44.2392568,16.4181111 45.6680346,16.4542346 47.0264667,16.6861852 C46.1395407,16.850642 45.2735284,17.151037 44.4607506,17.5997284 C40.3293679,19.8793086 38.8083802,25.1172099 41.0698988,29.2752099 C41.2372074,29.5822593 41.558516,29.7704815 41.9045407,29.7704815 C41.9254543,29.7704815 41.9463679,29.7695309 41.9682321,29.7685802 C42.3380222,29.7438642 42.6612321,29.5052593 42.7933679,29.158284 C42.932158,28.7951481 46.2393556,20.4515802 54.5458494,22.285321 C54.3937506,25.3605679 53.9374543,32.8828025 52.8176272,41.8889506 C52.3423185,43.7721235 50.6464173,45.1761852 48.6178,45.1761852 C46.2212938,45.1761852 44.2725284,43.2264691 44.2725284,40.8309136 C44.2725284,40.3052222 43.8466519,39.8802963 43.3219111,39.8802963 C42.7971704,39.8802963 42.3712938,40.3052222 42.3712938,40.8309136 C42.3712938,43.2274198 40.4215778,45.1761852 38.0260222,45.1761852 C35.629516,45.1761852 33.6798,43.2264691 33.6798,40.8309136 C33.6798,40.3052222 33.2539235,39.8802963 32.7291827,39.8802963 C32.204442,39.8802963 31.7785654,40.3052222 31.7785654,40.8309136 C31.7785654,43.2274198 29.8288494,45.1761852 27.4332938,45.1761852 C25.0377383,45.1761852 23.0880222,43.2264691 23.0880222,40.8309136 C23.0880222,40.3052222 22.6621457,39.8802963 22.1374049,39.8802963 C21.6126642,39.8802963 21.1867877,40.3052222 21.1867877,40.8309136 C21.1867877,43.2274198 19.2370716,45.1761852 16.8405654,45.1761852 C14.4440593,45.1761852 12.4952938,43.2264691 12.4952938,40.8309136 C12.4952938,40.3052222 12.0694173,39.8802963 11.5446765,39.8802963 C11.0199358,39.8802963 10.5940593,40.3052222 10.5940593,40.8309136 C10.5940593,43.2274198 8.64434321,45.1761852 6.24878765,45.1761852 C3.8532321,45.1761852 1.90351605,43.2264691 1.90351605,40.8309136 C1.90351605,40.3052222 1.47763951,39.8802963 0.952898765,39.8802963 C0.428158025,39.8802963 0.00228148148,40.3052222 0.00228148148,40.8309136 C0.00228148148,44.275 2.80470123,47.0774198 6.24878765,47.0774198 C8.48273827,47.0774198 10.4400593,45.8948519 11.5446765,44.1267037 C12.6492938,45.8948519 14.6066148,47.0774198 16.8405654,47.0774198 C19.074516,47.0774198 21.0327877,45.8948519 22.1374049,44.1267037 C23.2420222,45.8948519 25.2002938,47.0774198 27.4332938,47.0774198 C29.6662938,47.0774198 31.6245654,45.8948519 32.7291827,44.1267037 C33.8338,45.8948519 35.7920716,47.0774198 38.0260222,47.0774198 C40.2599728,47.0774198 42.2172938,45.8948519 43.3219111,44.1267037 C44.4265284,45.8948519 46.3838494,47.0774198 48.6178,47.0774198 C49.9904914,47.0774198 51.2576642,46.6268272 52.289084,45.8729877 C51.4002568,52.1831852 50.1853679,58.962037 48.5331951,65.3150123 C36.4822198,64.1524074 19.7114296,64.9052963 0.60117037,72.4741111 C0.112553086,72.6670864 -0.126051852,73.2193951 0.0669234568,73.7080123 C0.214269136,74.0816049 0.572651852,74.3088025 0.950997531,74.3088025 C1.06697284,74.3088025 1.1858,74.2878889 1.30082469,74.2422593 C19.4443062,67.0555926 35.547763,66.0498395 48.0160593,67.2314568 C47.1880716,70.204037 46.263121,73.0625432 45.2202938,75.7005062 C45.0273185,76.1891235 45.2668741,76.7414321 45.7554914,76.9334568 C45.870516,76.9790864 45.9883926,77 46.1043679,77 C46.4827136,77 46.8410963,76.7728025 46.9893926,76.3982593 C48.091158,73.6100988 49.0636395,70.5823827 49.9296519,67.4358395 C65.1547383,69.198284 74.4764914,74.1025185 74.6457012,74.1937778 C75.1058,74.4437901 75.6837753,74.2736296 75.9337877,73.8116296 C76.1847506,73.3515309 76.0136395,72.7735556 75.5525901,72.5235432 C75.227479,72.3467284 67.4457259,68.1744691 54.2625654,66.0488889 C53.0571827,65.8540123 51.7805037,65.6762469 50.441084,65.5184444 C52.1968741,58.6968148 53.4573926,51.4207901 54.3576272,44.756963 C55.5040716,46.1705309 57.2522568,47.0774198 59.2095778,47.0774198 C61.4435284,47.0774198 63.4008494,45.8948519 64.5054667,44.1267037 C65.610084,45.8948519 67.5674049,47.0774198 69.8013556,47.0774198 C73.2463926,47.0774198 76.0488123,44.275 76.0488123,40.8309136 C76.0488123,40.3052222 75.6229358,39.8802963 75.0981951,39.8802963 C74.5734543,39.8802963 74.1475778,40.3052222 74.1475778,40.8309136 C74.1475778,43.2274198 72.1978617,45.1761852 69.8013556,45.1761852 C67.4048494,45.1761852 65.456084,43.2264691 65.456084,40.8309136 C65.456084,40.3052222 65.0302074,39.8802963 64.5054667,39.8802963 C63.9807259,39.8802963 63.5548494,40.3052222 63.5548494,40.8309136 C63.5548494,43.2274198 61.6051333,45.1761852 59.2095778,45.1761852 C56.8130716,45.1761852 54.8633556,43.2264691 54.8633556,40.8309136 C54.8633556,40.8242593 54.8595531,40.8185556 54.8595531,40.8119012 C55.8548494,32.469284 56.2816765,25.576358 56.4347259,22.5372346 C64.3733309,23.4298642 65.2593062,31.9407407 65.2935284,32.3181358 C65.3268,32.6879259 65.5720593,33.0054321 65.9218864,33.129963 C66.0264543,33.167037 66.1348247,33.1850988 66.2412938,33.1850988 C66.4922568,33.1850988 66.7384667,33.0862346 66.9200346,32.8999136 C70.2253309,29.5223704 70.1854049,24.0667778 66.8297259,20.737716 C66.2488988,20.161642 65.5948741,19.6891852 64.8952198,19.3117901 C70.3831333,19.9163827 74.2540469,24.1751481 74.4898,24.4403704 C74.6732691,24.6466543 74.9337383,24.7597778 75.2018123,24.7597778 C75.2940222,24.7597778 75.3862321,24.7464691 75.4774914,24.7189012 C75.8330222,24.6124321 76.0925407,24.307284 76.1438741,23.9403457 C76.9728123,17.960963 72.8110099,12.4188642 66.8696519,11.5851728" id="Fill-1"></path>
                </g>
                <path d="M15.4879321,21.9687654 C12.4820802,21.9687654 10.036142,19.5237778 10.036142,16.5179259 C10.036142,13.5120741 12.4820802,11.0661358 15.4879321,11.0661358 C18.493784,11.0661358 20.9397222,13.5120741 20.9397222,16.5179259 C20.9397222,19.5237778 18.493784,21.9687654 15.4879321,21.9687654 M22.8409568,16.5179259 C22.8409568,12.4625926 19.5423148,9.16490123 15.4879321,9.16490123 C11.4335494,9.16490123 8.13490741,12.4635432 8.13490741,16.5179259 C8.13490741,20.5723086 11.4335494,23.87 15.4879321,23.87 C19.5423148,23.87 22.8409568,20.571358 22.8409568,16.5179259" id="Fill-4"></path>
                <path d="M14.5373148,1.90132963 L14.5373148,4.96992222 C14.5373148,5.49561358 14.9631914,5.92053951 15.4879321,5.92053951 C16.0126728,5.92053951 16.4385494,5.49561358 16.4385494,4.96992222 L16.4385494,1.90132963 C16.4385494,1.37563827 16.0126728,0.950712346 15.4879321,0.950712346 C14.9631914,0.950712346 14.5373148,1.37563827 14.5373148,1.90132963" id="Fill-6"></path>
                <path d="M9.15577531,2.29678642 C8.6766642,2.51067531 8.46087407,3.07153951 8.67381235,3.55160123 L9.92197284,6.35402099 C10.0797753,6.70765062 10.4267506,6.91773704 10.790837,6.91773704 C10.920121,6.91773704 11.0513062,6.89207037 11.1767877,6.83503333 C11.6558988,6.62114444 11.8716889,6.06028025 11.6587506,5.58021852 L10.4105901,2.77779877 C10.1976519,2.29868765 9.63488642,2.08004568 9.15577531,2.29678642" id="Fill-8"></path>
                <path d="M6.90547407,9.74116543 C7.16499259,9.74116543 7.42451111,9.63564691 7.61273333,9.42651111 C7.96446173,9.03675802 7.93214074,8.4359679 7.54238765,8.08423951 L5.26280741,6.03090617 C4.8721037,5.6801284 4.2722642,5.71054815 3.91958519,6.10125185 C3.56785679,6.49100494 3.60017778,7.09179506 3.98993086,7.44352346 L6.26951111,9.49685679 C6.45107901,9.66036296 6.67922716,9.74116543 6.90547407,9.74116543" id="Fill-10"></path>
                <path d="M0.682828395,11.7059963 C0.521223457,12.2050704 0.794050617,12.7421691 1.29312469,12.9047247 L4.21056914,13.8534407 C4.30848272,13.8848111 4.40734691,13.900021 4.50430988,13.900021 C4.90547037,13.900021 5.27716173,13.6443049 5.40834691,13.2440951 C5.56995185,12.745021 5.29712469,12.2079222 4.79805062,12.0453667 L1.88060617,11.0966506 C1.3815321,10.9340951 0.845383951,11.2088235 0.682828395,11.7059963" id="Fill-12"></path>
                <path d="M0.0070345679,18.1444321 C0.0583679012,18.6330494 0.470935802,18.9961852 0.950997531,18.9961852 C0.984269136,18.9961852 1.01754074,18.994284 1.05176296,18.9904815 L4.10229383,18.6701235 C4.62418272,18.6149877 5.00347901,18.1482346 4.94834321,17.6253951 C4.89320741,17.1035062 4.42740494,16.7194568 3.90361481,16.7793457 L0.853083951,17.0997037 C0.330244444,17.1548395 -0.0481012346,17.6215926 0.0070345679,18.1444321" id="Fill-14"></path>
                <path d="M2.83150864,24.7760333 C2.99216296,24.7760333 3.15566914,24.7351568 3.30586667,24.6486506 L5.96284198,23.1153049 C6.41723704,22.8529346 6.57313827,22.2711568 6.3107679,21.8167617 C6.04839753,21.3623667 5.46757037,21.2055148 5.01222469,21.4688358 L2.35524938,23.0021815 C1.90085432,23.2645519 1.74495309,23.8463296 2.00732346,24.3007247 C2.18318765,24.6058728 2.50259506,24.7760333 2.83150864,24.7760333" id="Fill-16"></path>
                <path d="M6.89615802,29.292416 C7.19084938,29.292416 7.47983704,29.1564778 7.66615802,28.9007617 L9.46947901,26.4196506 C9.77842963,25.9947247 9.68431852,25.4005889 9.25939259,25.0925889 C8.83446667,24.7845889 8.24033086,24.8777494 7.93138025,25.3026753 L6.12805926,27.7837864 C5.81910864,28.2087123 5.91321975,28.8028481 6.33814568,29.1108481 C6.50640494,29.2334778 6.7022321,29.292416 6.89615802,29.292416" id="Fill-18"></path>
                <path d="M12.1570642,27.6162877 L11.5192,30.6164358 C11.409879,31.1297691 11.737842,31.6345469 12.2511753,31.7448185 C12.3177185,31.7590778 12.3842617,31.7647815 12.4498543,31.7647815 C12.8890395,31.7647815 13.2835457,31.4586827 13.3786074,31.0118926 L14.0164716,28.0117444 C14.1257926,27.4984111 13.7978296,26.9936333 13.2844963,26.8833617 C12.7683111,26.7768926 12.2663852,27.1039049 12.1570642,27.6162877" id="Fill-20"></path>
                <path d="M17.6913679,26.8833617 C17.1780346,26.9926827 16.8500716,27.4974605 16.9593926,28.0117444 L17.5972568,31.0118926 C17.6923185,31.4586827 18.0868247,31.7647815 18.5260099,31.7647815 C18.5916025,31.7647815 18.6581457,31.7581272 18.7246889,31.7448185 C19.2380222,31.6354975 19.5659852,31.1307198 19.4566642,30.6164358 L18.8188,27.6162877 C18.709479,27.1029543 18.2047012,26.7740407 17.6913679,26.8833617" id="Fill-22"></path>
                <path d="M23.3105617,28.9005716 C23.4968827,29.1572383 23.7858704,29.2922259 24.0805617,29.2922259 C24.2744877,29.2922259 24.4693642,29.2332877 24.6385741,29.110658 C25.0635,28.802658 25.1576111,28.2085222 24.8486605,27.7835963 L23.0453395,25.3024852 C22.7363889,24.8775593 22.1432037,24.7834481 21.7173272,25.0923988 C21.2924012,25.4003988 21.1982901,25.9945346 21.5072407,26.4194605 L23.3105617,28.9005716 Z" id="Fill-24"></path>
                <path d="M28.1454012,24.7760333 C28.4743148,24.7760333 28.7937222,24.6049222 28.9695864,24.3007247 C29.2319568,23.845379 29.0760556,23.2645519 28.6216605,23.0021815 L25.9646852,21.4688358 C25.5083889,21.2064654 24.9285123,21.3633173 24.666142,21.8167617 C24.4037716,22.2721074 24.5596728,22.8529346 25.0140679,23.1153049 L27.6710432,24.6486506 C27.8212407,24.7351568 27.9847469,24.7760333 28.1454012,24.7760333" id="Fill-26"></path>
                <path d="M30.0257222,18.9952346 C30.505784,18.9952346 30.9183519,18.6320988 30.9706358,18.1434815 C31.0257716,17.620642 30.6464753,17.1538889 30.1245864,17.0987531 L27.0740556,16.7783951 C26.5474136,16.7185062 26.084463,17.1025556 26.0293272,17.6244444 C25.9741914,18.147284 26.3534877,18.614037 26.8753765,18.6691728 L29.9259074,18.9895309 C29.959179,18.9933333 29.9924506,18.9952346 30.0257222,18.9952346" id="Fill-28"></path>
                <path d="M26.471079,13.900116 C26.568042,13.900116 26.6678568,13.8849062 26.7648198,13.8535358 L29.6822642,12.9048198 C30.1813383,12.7422642 30.4541654,12.206116 30.2925605,11.7060914 C30.1309556,11.2089185 29.595758,10.9341901 29.0947827,11.0957951 L26.1773383,12.0445111 C25.6782642,12.2070667 25.405437,12.7432148 25.567042,13.2432395 C25.6972765,13.6444 26.0699185,13.900116 26.471079,13.900116" id="Fill-30"></path>
                <path d="M27.0568494,6.10115679 C26.7060716,5.71045309 26.1052815,5.68003333 25.7136272,6.03081111 L23.4340469,8.08414444 C23.0442938,8.43587284 23.0129235,9.03666296 23.3637012,9.42641605 C23.5519235,9.63555185 23.8104914,9.74107037 24.0709605,9.74107037 C24.2972074,9.74107037 24.5253556,9.6602679 24.7069235,9.49676173 L26.9865037,7.4434284 C27.3762568,7.0917 27.4076272,6.49090988 27.0568494,6.10115679" id="Fill-32"></path>
                <path d="M20.5641333,2.77855926 L19.3169235,5.58097901 C19.1030346,6.06009012 19.3188247,6.62190494 19.7988864,6.83484321 C19.9243679,6.89188025 20.0565037,6.91754691 20.184837,6.91754691 C20.5489235,6.91754691 20.8958988,6.70746049 21.0537012,6.35288025 L22.3009111,3.55046049 C22.5148,3.07134938 22.2990099,2.50953457 21.8189481,2.2965963 C21.3388864,2.07985556 20.7789728,2.29849753 20.5641333,2.77855926" id="Fill-34"></path>
            </g>
        </g>
    </g>
</svg>